<?xml version="1.0" encoding="UTF-8" standalone="no"?>
<!-- Created with Inkscape (http://www.inkscape.org/) -->
<svg
   xmlns:svg="http://www.w3.org/2000/svg"
   xmlns="http://www.w3.org/2000/svg"
   version="1.0"
   width="200"
   height="162"
   id="svg2">
  <defs
     id="defs4" />
  <g
     transform="translate(-251.42857,-557.07648)"
     id="layer1">
    <path
       d="M 277.31179,707.85871 L 293.47968,671.1135 C 283.26101,663.13454 265.0634,650.53618 265.34335,627.01925 C 265.19287,591.55583 313.52316,569.28346 351.22216,569.69672 C 401.33563,569.62673 439.27068,595.80332 439.20069,626.80928 C 439.1307,668.8038 380.47835,696.10024 320.56615,681.61214 L 277.31179,707.85871 z"
       id="path2500"
       style="fill:#e9e9fb;fill-opacity:1;stroke:#404040;stroke-width:5.41958618px;stroke-linejoin:round;stroke-opacity:1" />
    <g
       transform="translate(-1.0734679,4.8281522)"
       id="g2401">
      <path
         d="M 301.63307,617.23054 C 301.52174,617.13518 301.36298,617.00014 301.15678,616.8254 C 301.10935,616.77797 301.08164,616.62743 301.07365,616.3738 C 301.06566,616.12017 301.04594,615.99335 301.01448,615.99335 C 300.96656,615.91397 300.91888,615.6284 300.87145,615.13662 C 300.82401,614.80361 300.8003,614.55772 300.8003,614.39896 C 300.8003,614.28812 300.80804,614.20874 300.82353,614.16081 C 300.87145,614.09741 300.82401,613.60576 300.68122,612.68585 C 300.53843,611.76596 300.46704,611.22276 300.46704,611.05624 C 300.46704,610.88974 300.4432,610.63998 300.39553,610.30696 C 300.34785,609.97396 300.32401,609.7242 300.32401,609.55768 C 300.32401,609.39119 300.30029,609.1453 300.25286,608.82002 C 300.20542,608.49476 300.1817,608.25299 300.18171,608.0947 L 300.18171,606.52427 C 300.1817,606.34954 300.22914,605.82606 300.32401,604.95383 C 300.54618,604.25587 300.65726,603.81976 300.65727,603.64549 C 300.65726,603.72489 300.77634,603.51869 301.01448,603.0269 L 301.49004,602.05182 C 301.68026,601.78175 301.79135,601.67067 301.82329,601.71857 C 301.95011,601.71858 302.11661,601.7423 302.32281,601.78972 C 302.33878,601.80571 302.4339,601.82168 302.60815,601.83764 C 302.71899,601.83766 302.78639,601.88122 302.81035,601.96833 C 302.83431,602.05547 302.86202,602.14671 302.89349,602.24205 C 302.95689,602.40034 302.98859,602.50344 302.9886,602.55134 L 302.9886,604.26409 C 303.052,604.5337 303.14736,604.8747 303.27466,605.28708 C 303.41696,605.5567 303.64688,605.85002 303.9644,606.16705 C 304.02781,606.23047 304.21416,606.48035 304.52346,606.91669 C 304.83275,607.35306 304.9874,607.58309 304.9874,607.6068 C 304.9874,607.63053 305.12619,607.78118 305.40379,608.05876 C 305.68137,608.33636 305.82017,608.48315 305.82018,608.49911 C 305.82017,608.59399 306.08977,608.91901 306.62899,609.47419 C 306.67642,609.50614 306.95401,609.73606 307.46177,610.16393 C 307.73136,610.35465 308.14376,610.64023 308.69895,611.02067 C 308.92062,611.17943 309.05543,611.28253 309.10335,611.32996 C 309.26162,611.3774 309.46782,611.44081 309.72195,611.52019 C 309.86472,611.59957 309.98355,611.63926 310.07843,611.63926 C 310.25316,611.63926 310.34053,611.39338 310.34054,610.9016 L 310.34054,606.92867 C 310.34053,606.81784 310.35626,606.46885 310.38773,605.88172 L 310.41169,604.81152 C 310.41168,604.6368 310.43552,604.38293 310.4832,604.0499 C 310.53087,603.7169 310.55471,603.46303 310.55472,603.28828 C 310.55471,603.22489 310.54672,603.00296 310.53076,602.6225 L 310.48284,602.12298 C 310.48283,602.23383 310.54624,602.14647 310.67307,601.86087 C 310.75244,601.70261 310.82383,601.54409 310.88725,601.38531 C 311.28366,600.98891 311.49784,600.78271 311.5298,600.76672 C 311.54576,600.79869 311.64886,600.79481 311.83909,600.75511 C 312.02931,600.71543 312.12442,600.69559 312.12443,600.69557 C 312.12442,600.71156 312.22752,600.79881 312.43373,600.95731 C 312.63991,601.11585 312.74301,601.20309 312.74302,601.21905 C 312.74301,601.29796 312.85409,601.3771 313.07628,601.45647 C 312.98091,601.45648 312.93323,601.82144 312.93325,602.55134 C 312.93323,602.77304 312.87781,603.14163 312.76698,603.65711 C 312.65613,604.17262 312.6007,604.58114 312.60072,604.88268 C 312.6007,604.93012 312.59272,605.23942 312.57676,605.81056 L 312.52884,606.71449 C 312.52883,606.88875 312.50511,607.1465 312.45769,607.48773 C 312.41024,607.82898 312.38652,608.07874 312.38653,608.23701 L 312.38653,614.13758 C 312.22776,614.28037 311.9659,614.46261 311.60095,614.68429 C 311.37925,614.76368 311.25244,614.78764 311.2205,614.75617 C 311.20452,614.72423 311.11739,614.71624 310.95913,614.73221 C 310.80035,614.76368 310.705,614.77166 310.67307,614.75617 C 310.59416,614.66082 310.22944,614.61314 309.57891,614.61314 C 309.53147,614.61314 309.39267,614.56559 309.16253,614.47047 C 308.93236,614.37536 308.81728,614.31196 308.81729,614.28025 C 308.81728,614.24855 308.67861,614.12161 308.40127,613.89944 C 308.12391,613.67727 307.94555,613.54247 307.86617,613.49503 C 307.69143,613.41565 307.39787,613.19348 306.98548,612.82852 L 306.36689,612.28181 L 305.96248,611.94855 C 305.77225,611.7898 305.49466,611.55988 305.12971,611.25881 C 305.01886,611.17943 304.63042,610.79076 303.9644,610.09278 C 303.83758,609.96597 303.67882,609.75977 303.48812,609.47419 C 303.44068,609.37933 303.27417,609.2605 302.9886,609.1177 L 302.94141,609.1177 C 302.60839,609.11771 302.44188,609.29995 302.44189,609.66441 L 302.44189,610.56834 C 302.44188,610.64773 302.4656,610.91757 302.51304,611.37788 L 302.58419,612.06762 L 302.58419,613.37596 C 302.58419,613.40791 302.5762,613.60612 302.56023,613.97059 L 302.51304,614.54199 L 302.51304,615.56499 C 302.51304,615.96141 302.48932,616.239 302.44189,616.39776 C 302.42591,616.46117 302.29099,616.61969 302.03712,616.87332 C 301.78324,617.12695 301.64856,617.24602 301.63307,617.23054 L 301.63307,617.23054 z M 319.01243,605.00175 C 319.01242,605.12858 318.93304,605.04121 318.77428,604.73965 C 318.69538,604.58138 318.61624,604.41487 318.53687,604.24013 C 318.50492,604.20868 318.39383,604.15725 318.20361,604.08584 C 318.01338,604.01446 317.89431,603.97876 317.8464,603.97875 C 317.51338,603.97876 317.25975,604.0262 317.0855,604.12105 C 317.02209,604.15301 316.79992,604.35921 316.41899,604.73965 C 316.26071,605.00926 316.05451,605.32654 315.8004,605.69149 C 315.68956,605.80235 315.51119,606.23846 315.2653,606.99983 C 315.01942,607.76121 314.89647,608.23314 314.89647,608.41562 C 314.89647,608.5981 314.85291,608.86771 314.76578,609.22443 C 314.67866,609.58117 314.6351,609.8469 314.6351,610.02163 L 314.6351,611.59134 C 314.65107,611.67072 314.68277,611.90887 314.73021,612.30577 C 314.73021,612.52746 314.78563,612.93961 314.89647,613.54222 C 314.95988,613.81232 315.09468,614.2327 315.30088,614.80337 C 315.44367,615.15235 315.72126,615.56475 316.13365,616.04055 C 316.22901,616.07249 316.34808,616.12017 316.49087,616.18358 C 316.52233,616.21504 316.72441,616.29817 317.09712,616.43297 C 317.46982,616.56778 317.65617,616.65502 317.65617,616.69471 C 317.65617,616.7344 318.06058,616.79394 318.8694,616.87332 C 318.59979,616.87332 318.81397,616.8496 319.51195,616.80217 C 319.89287,616.77022 320.24984,616.74626 320.58286,616.73029 C 320.66224,616.7148 321.09835,616.58 321.8912,616.32588 C 322.08141,616.32588 322.49381,616.09597 323.12838,615.63614 C 323.12837,615.7949 323.29887,615.75533 323.63988,615.51743 C 323.98087,615.27953 324.15137,615.14074 324.15138,615.10104 C 324.15137,615.06135 324.31787,614.93042 324.6509,614.70825 C 324.9839,614.48609 325.16638,614.35927 325.19834,614.32781 L 326.62574,612.9004 C 326.62573,612.71018 326.60201,612.50398 326.55459,612.28181 C 326.5386,612.24987 326.36411,612.15475 326.03111,611.99647 L 325.45971,611.73437 C 325.39629,611.65499 325.16638,611.81351 324.76997,612.20993 L 323.88927,613.09062 C 323.60417,613.3762 322.77963,613.85999 321.41564,614.54199 C 321.11408,614.63686 320.77308,614.7477 320.39264,614.87452 C 320.07511,614.85903 319.73411,614.85903 319.36964,614.87452 C 319.33769,614.90647 319.21862,614.91445 319.01243,614.89848 C 318.85366,614.85104 318.60777,614.79562 318.27476,614.73221 C 318.14794,614.73221 317.95772,614.61314 317.70409,614.375 C 317.59276,614.2961 317.36285,614.01077 317.01435,613.51899 C 316.82364,613.26488 316.71255,613.09837 316.68109,613.01947 C 316.64914,612.82877 316.61744,612.6383 316.58598,612.44807 C 316.5066,612.22591 316.41923,611.81351 316.32388,611.21089 C 316.32388,611.05262 316.36357,610.61651 316.44295,609.90256 C 316.47489,609.66442 316.57001,609.268 316.72829,608.71329 C 316.80766,608.39578 316.86333,608.2133 316.89528,608.16586 C 317.11696,607.69006 317.27548,607.41247 317.37084,607.33308 C 317.56106,607.15884 317.74354,606.88923 317.91828,606.52427 C 318.23531,605.87374 318.44937,605.54847 318.56046,605.54846 C 318.67154,605.54847 318.8222,605.36623 319.01243,605.00175 L 319.01243,605.00175 z M 318.67917,605.21593 C 318.72709,605.21594 318.88585,605.14455 319.15546,605.00175 C 319.42506,604.85897 319.55986,604.76773 319.55986,604.72803 C 319.55986,604.68835 319.92458,604.39091 320.65402,603.83572 C 320.84423,603.74086 321.24065,603.59807 321.84328,603.40735 C 322.14482,603.34396 322.30358,603.32823 322.31956,603.36016 C 322.31956,603.39163 322.43064,603.39163 322.65282,603.36016 C 322.95388,603.31225 323.1124,603.28829 323.12838,603.28828 C 323.73099,603.28829 324.05601,603.31225 324.10346,603.36016 L 324.50787,603.76457 C 324.55577,603.81201 324.68283,603.97852 324.88904,604.26409 C 325.09523,604.54968 325.19832,604.70832 325.19834,604.74001 C 325.19832,604.77172 325.35684,605.13656 325.6739,605.83452 C 325.73729,606.37374 325.84838,607.19054 326.00715,608.28493 C 325.88032,608.98291 325.81691,609.37134 325.81693,609.45023 C 325.81691,609.73581 325.63444,610.44952 325.26949,611.59134 C 325.2535,611.60732 325.16626,611.70654 325.00775,611.88902 C 324.84922,612.0715 324.76996,612.17847 324.76997,612.20993 C 324.76996,612.22591 324.9643,612.41238 325.35298,612.76935 C 325.74165,613.12632 325.93599,613.32853 325.936,613.37596 C 325.93599,613.45534 326.18962,613.32054 326.69689,612.97155 L 327.1013,612.20993 C 327.30748,611.63926 327.45826,611.06835 327.55363,610.49719 C 327.60105,610.27502 327.66446,609.92604 327.74385,609.45023 C 327.75981,609.11722 327.77554,608.91901 327.79104,608.8556 C 327.83895,608.64941 327.86291,608.23702 327.86292,607.61842 C 327.86291,607.47564 327.83907,607.26944 327.79141,606.99983 C 327.74372,606.73023 327.71988,606.52403 327.71989,606.38124 C 327.71988,605.73119 327.65647,605.27136 327.52967,605.00175 C 327.48222,604.92238 327.33943,604.50999 327.1013,603.76457 C 326.73681,603.17745 326.53062,602.88389 326.48271,602.88387 C 326.53062,602.88389 326.30869,602.63025 325.81693,602.12298 C 325.40452,601.85339 325.14677,601.71858 325.04369,601.71857 C 324.94058,601.71858 324.78992,601.68289 324.59172,601.61148 C 324.3935,601.5401 324.24672,601.5044 324.15138,601.50439 L 323.05723,601.50439 C 322.69226,601.69462 322.30358,601.78974 321.8912,601.78972 C 321.73243,601.78974 321.41515,601.90082 320.93935,602.12298 C 320.73315,602.20237 320.52695,602.29748 320.32076,602.40831 C 320.28929,602.44027 320.16647,602.5038 319.95229,602.5989 C 319.7381,602.69403 319.60729,602.7653 319.55986,602.81272 C 319.21087,602.9715 318.68739,603.20141 317.98943,603.50246 C 317.5296,603.96279 317.27572,604.19295 317.22781,604.19293 C 317.14891,604.19295 317.72006,604.43859 318.94127,604.92987 L 318.67917,605.21593 z M 344.27156,602.43227 C 344.12925,602.52716 343.96274,602.64599 343.77204,602.78876 C 343.70863,602.85218 343.59778,603.07435 343.43951,603.45527 C 343.36013,603.64551 343.24904,604.10534 343.10625,604.83476 C 343.0109,605.34252 342.9395,606.00878 342.89207,606.83356 L 342.82092,608.18981 C 342.78897,608.83988 342.78897,609.3711 342.82092,609.78349 C 342.80494,609.79946 342.79696,610.21186 342.79696,611.02067 C 342.81293,611.10005 342.83665,611.33795 342.86811,611.73437 C 342.90006,612.11531 342.90006,612.3215 342.86811,612.35296 C 342.91554,612.78133 342.93926,613.24915 342.93926,613.75641 C 342.9078,613.78836 342.89207,614.10564 342.89207,614.70825 C 342.89207,615.07321 342.96346,615.32709 343.10625,615.46988 C 343.12223,615.48537 343.15393,615.60819 343.20137,615.83834 C 343.2488,616.0685 343.28837,616.19943 343.32007,616.23113 C 343.35178,616.26284 343.41531,616.42148 343.51066,616.70706 L 343.91507,616.89728 C 344.10529,616.83387 344.2361,616.75062 344.3075,616.64752 C 344.37889,616.54442 344.45428,616.42947 344.53366,616.30265 C 344.53366,615.92172 344.5535,615.72339 344.5932,615.70765 C 344.63288,615.69192 344.65273,615.61266 344.65273,615.46988 C 344.65273,615.27917 344.63675,615.00956 344.60481,614.66106 L 344.67669,613.6141 C 344.67669,613.53472 344.69242,613.28884 344.72388,612.87644 L 344.74784,612.11482 C 344.74784,611.2426 344.77156,610.75905 344.819,610.66418 C 344.80302,610.15644 344.82674,609.5773 344.89015,608.92675 C 344.92209,608.86335 344.93806,608.45894 344.93807,607.71353 L 345.0811,606.47635 L 345.15225,605.23917 C 345.15225,605.11236 345.17596,604.95384 345.2234,604.76361 L 345.36643,604.07386 L 345.43759,603.59758 L 345.2234,602.97898 L 344.93807,602.50343 L 344.67669,602.36112 L 344.27156,602.43227 z M 348.36645,617.30169 C 348.36645,617.25425 348.23165,617.15914 347.96205,617.01635 C 347.96205,617.09525 347.8984,616.67487 347.7711,615.75521 C 347.70769,615.37428 347.67598,615.11641 347.67598,614.98161 C 347.67598,614.84681 347.65626,614.62089 347.61681,614.30385 C 347.57736,613.98681 347.55764,613.74891 347.55764,613.59014 L 347.55764,612.28181 C 347.57313,611.91685 347.61258,611.48074 347.67598,610.97347 C 347.81877,610.56109 347.89017,610.2438 347.89017,610.02163 C 347.89017,609.43451 347.96156,608.9984 348.10435,608.71329 C 348.27909,607.95192 348.509,607.17457 348.7941,606.38124 C 348.85799,606.20699 348.96907,605.93739 349.12735,605.57242 C 349.19076,605.42964 349.30184,605.17601 349.46061,604.81152 L 349.74594,604.40712 C 349.65107,604.40713 349.60363,604.26434 349.60364,603.97875 C 349.60363,603.91535 349.62735,603.78055 349.67479,603.57434 C 349.89696,603.44754 350.21424,603.24909 350.62663,602.97898 C 350.76894,602.85218 350.84009,602.79676 350.84009,602.81272 C 350.84009,602.86017 350.99086,602.93544 351.29242,603.03852 C 351.59396,603.14163 351.74474,603.23287 351.74474,603.31224 C 351.74474,603.39163 351.99039,603.82 352.48168,604.59734 C 352.68787,605.12059 353.02113,605.88173 353.48145,606.88075 C 354.29025,608.38755 354.69466,609.20459 354.69467,609.33188 C 354.69466,609.37933 354.82547,609.5854 355.0871,609.95011 C 355.34871,610.31484 355.46766,610.52103 355.44395,610.5687 C 355.42022,610.61639 355.50347,610.76704 355.69371,611.02067 C 355.88392,611.2743 355.97903,611.43282 355.97904,611.49623 C 355.97903,611.55964 356.09811,611.73413 356.33626,612.01971 C 356.44709,611.98825 356.53422,611.97252 356.59763,611.97251 C 356.66103,611.97252 356.70871,611.98825 356.74067,612.01971 C 356.78809,612.06763 356.86747,612.03593 356.97881,611.92459 C 357.04221,611.87716 357.08964,611.82174 357.12111,611.75833 C 356.99429,611.75833 357.03398,611.56787 357.24018,611.18693 C 357.35102,610.88587 357.45412,610.49744 357.54948,610.02163 C 357.5969,609.73606 357.6366,609.5773 357.66855,609.54534 C 357.76389,609.29172 357.91443,608.90328 358.12015,608.38004 C 358.2789,608.0785 358.50906,607.62641 358.81062,607.02379 C 358.92145,606.75419 358.98486,606.6114 359.00085,606.59542 C 359.11168,606.48459 359.24648,606.18328 359.40525,605.69149 C 359.50059,605.54871 359.64338,605.30283 359.83362,604.95383 C 359.92848,604.68424 360.10297,604.31952 360.3571,603.85968 C 360.37257,603.82775 360.51536,603.58186 360.78547,603.12202 C 360.84886,603.01119 360.91227,602.89236 360.97569,602.76553 C 361.00714,602.71762 361.14968,602.62227 361.40333,602.47947 C 361.81571,602.38461 362.04587,602.33717 362.0938,602.33716 C 362.31595,602.33717 362.47447,602.38461 362.56936,602.47947 C 362.75957,602.65421 362.85468,602.7653 362.8547,602.81272 C 362.85468,602.86017 362.84282,602.93943 362.81912,603.0505 C 362.79539,603.1616 362.78353,603.24497 362.78354,603.30062 C 362.78353,603.3563 362.77167,603.43955 362.74797,603.55038 C 362.72423,603.66124 362.71238,603.74062 362.71239,603.78853 C 362.71238,603.69318 362.68842,603.91511 362.64051,604.45431 C 362.60903,604.86672 362.60903,605.07291 362.64051,605.0729 C 362.67244,605.12035 362.71213,605.29484 362.75958,605.59638 C 362.79151,605.78661 362.80749,605.92142 362.8075,606.00079 C 362.80749,606.08018 362.7995,606.11987 362.78354,606.11986 C 362.73609,606.11987 362.7995,606.84954 362.97377,608.30889 C 363.19592,608.83213 363.31499,609.12545 363.33098,609.18885 C 363.33097,609.79148 363.35468,610.1165 363.40213,610.16393 C 363.4815,610.25929 363.52119,610.60029 363.52121,611.18693 C 363.52119,611.31424 363.55689,611.51269 363.6283,611.78229 C 363.69968,612.0519 363.73537,612.23026 363.73539,612.31738 C 363.73537,612.40451 363.77494,612.57102 363.8541,612.8169 C 363.93322,613.0628 363.98864,613.20558 364.02036,613.24527 C 364.05205,613.28496 364.1393,613.50701 364.2821,613.91142 C 364.42487,614.31583 364.49627,614.54974 364.49629,614.61314 C 364.49627,614.67655 364.48441,614.76779 364.46071,614.88686 C 364.43697,615.00593 364.42512,615.09717 364.42513,615.16058 C 364.42512,615.52506 364.37744,615.75497 364.2821,615.85032 C 364.0604,616.08798 363.9256,616.20681 363.87769,616.20681 C 363.84622,616.20681 363.76308,616.17124 363.6283,616.10008 C 363.49348,616.02893 363.41023,615.99335 363.37854,615.99335 C 363.34682,615.99335 363.27143,615.96552 363.15237,615.90986 C 363.03329,615.8542 362.97375,615.81051 362.97377,615.77881 C 362.97375,615.7471 362.93019,615.62029 362.84308,615.39836 C 362.75594,615.17643 362.71238,615.02977 362.71239,614.95838 C 362.71238,614.88698 362.62912,614.62524 362.46263,614.17316 C 362.29611,613.72108 362.19688,613.47906 362.16495,613.44711 C 362.00618,612.92388 361.8554,612.39266 361.71263,611.85344 C 361.50641,611.1395 361.40332,610.63998 361.40333,610.35488 C 361.40332,610.19613 361.35975,609.95411 361.27264,609.62884 C 361.1855,609.30358 361.14194,609.06568 361.14195,608.91513 C 361.14194,608.76461 361.07853,608.61395 360.95173,608.46317 C 360.8249,608.3124 360.68211,608.23702 360.52336,608.23701 C 360.23777,608.23702 360.07127,608.26098 360.02384,608.30889 C 359.92848,608.38779 359.80941,608.51461 359.66663,608.68933 C 359.65113,608.76872 359.60369,608.88755 359.52432,609.04582 C 359.49237,609.10924 359.42097,609.31543 359.31014,609.66441 C 359.19929,610.01341 359.14386,610.20387 359.14388,610.23581 C 359.14386,610.72759 359.07247,611.11603 358.92969,611.40111 C 358.91371,611.44904 358.85006,611.63152 358.73874,611.94855 L 358.52529,612.49599 C 358.47736,612.60684 358.36627,612.86047 358.19203,613.25689 C 358.09667,613.33627 358.04899,613.65355 358.049,614.20873 C 358.04899,614.27214 358.01329,614.39896 357.94191,614.58918 C 357.8705,614.77941 357.83481,614.90647 357.83482,614.97036 C 357.83481,615.41421 357.78737,615.63614 357.69251,615.63614 C 357.67653,615.63614 357.60513,615.69568 357.47833,615.81475 C 357.3515,615.93382 357.26413,615.99335 357.21623,615.99335 L 356.81182,615.99335 C 356.78035,615.96141 356.55043,615.70753 356.12207,615.23173 L 355.43233,614.47011 C 355.36891,614.4067 355.16671,614.14509 354.82572,613.68525 C 354.48471,613.22543 354.30623,612.96381 354.29026,612.9004 C 353.9887,612.53544 353.63972,612.01197 353.2433,611.32996 C 353.0371,610.87014 352.80719,610.38635 352.55356,609.8786 C 352.41077,609.56156 352.1886,609.14917 351.88705,608.64142 C 351.82364,608.59399 351.73252,608.42361 351.61369,608.13028 C 351.49486,607.83697 351.43544,607.6903 351.43545,607.6903 C 351.43544,607.6903 351.34009,607.55526 351.14939,607.28516 C 351.11792,607.26968 351.04677,607.24596 350.93593,607.21401 C 350.8246,607.18256 350.7215,607.18256 350.62663,607.21401 C 350.5153,607.24596 350.39623,607.3729 350.26942,607.59482 C 350.1426,607.81676 350.07919,607.98338 350.0792,608.0947 C 350.07919,608.69733 350.0395,609.04607 349.96012,609.14093 C 349.86477,609.44249 349.74594,609.80745 349.60364,610.23581 C 349.58766,610.50542 349.53998,610.82246 349.46061,611.18693 C 349.44463,611.53592 349.40494,611.94832 349.34153,612.42411 C 349.31007,612.48753 349.29434,612.7097 349.29434,613.09062 L 349.29434,613.11458 C 349.29434,613.33627 349.27837,613.66529 349.24642,614.10164 C 349.21447,614.538 349.1985,614.86702 349.1985,615.0887 L 349.1985,616.20681 C 349.1985,616.23876 349.17478,616.31814 349.12735,616.44495 C 349.07991,616.57177 349.0562,616.65103 349.0562,616.68273 C 349.0562,616.71444 349.00864,616.81366 348.91353,616.98041 C 348.81842,617.14716 348.76287,617.23054 348.7469,617.23054 C 348.73093,617.23054 348.65953,617.24627 348.53272,617.27773 C 348.46931,617.2937 348.41389,617.30169 348.36645,617.30169 L 348.36645,617.30169 z M 366.73686,616.61194 C 366.60956,616.54805 366.53018,616.50038 366.49871,616.46891 C 366.3719,616.18334 366.30849,615.85807 366.30849,615.49311 C 366.30849,615.1601 366.3719,614.77965 366.49871,614.35176 C 366.83173,613.68526 367.06963,613.14581 367.21242,612.73341 C 367.43459,612.35297 367.71218,611.77407 368.04519,610.99671 C 368.07665,610.8699 368.23916,610.55673 368.53273,610.0572 C 368.82629,609.55769 368.97308,609.26026 368.97308,609.16489 C 368.97308,608.94273 369.20299,608.38755 369.66282,607.49935 C 369.69476,607.43595 369.97236,606.94441 370.4956,606.02475 C 370.65435,605.78661 370.84458,605.43763 371.06627,604.97779 C 371.27246,604.59735 371.58175,604.01059 371.99415,603.21749 C 372.40654,602.42442 372.61274,602.0159 372.61275,601.99193 C 372.61274,601.96798 372.6367,601.69438 372.68462,601.17113 C 372.96971,600.9969 373.12823,600.90977 373.16018,600.90975 L 373.80273,600.90975 C 374.07233,600.90977 374.2824,600.83039 374.43294,600.67161 C 374.58347,600.51287 374.76982,600.37806 374.992,600.2672 C 375.08734,600.21979 375.27781,600.19607 375.5634,600.19605 L 375.82477,600.55254 L 376.53847,602.02787 L 377.15707,603.76457 L 377.65659,605.88172 C 377.65657,605.92916 377.79936,606.60317 378.08495,607.90375 C 378.21176,608.45894 378.37028,609.04583 378.56051,609.66441 C 378.62391,609.69637 378.71115,610.02163 378.82225,610.64022 C 378.93332,611.25882 379.0127,611.56811 379.06039,611.56811 C 379.10806,611.56811 379.15561,611.814 379.20306,612.30577 C 379.25048,612.70219 379.2742,612.95195 379.27421,613.05505 C 379.2742,613.15815 379.31389,613.42775 379.39329,613.86386 C 379.47265,614.29998 379.52832,614.53376 379.56028,614.56522 C 379.59172,614.59717 379.59172,614.77166 379.56028,615.0887 C 379.51234,615.2949 379.46467,615.61218 379.41725,616.04055 C 379.38529,616.29418 379.36157,616.43697 379.34609,616.46891 C 379.15537,616.65914 378.98887,616.75425 378.84657,616.75425 C 378.4816,616.75425 378.30711,616.75425 378.3231,616.75425 C 378.21176,616.73828 378.1164,616.62719 378.03703,616.42099 C 377.98959,616.31015 377.95788,616.23101 377.94192,616.18358 L 377.94192,615.56499 C 377.94191,615.20003 377.86277,614.63686 377.7045,613.87548 C 377.60914,613.33627 377.48208,612.74939 377.32333,612.11482 C 377.27588,612.08336 377.22046,611.92484 377.15707,611.63926 C 377.09365,611.35369 377.05008,611.2109 377.02638,611.21089 C 377.00265,611.2109 376.94311,610.98885 376.84777,610.54474 C 376.7524,610.10065 376.68888,609.8786 376.65718,609.8786 C 376.62547,609.8786 376.5859,609.69225 376.53847,609.31954 C 376.49103,608.94685 376.44335,608.72879 376.39544,608.66537 C 376.36397,608.64941 376.29669,608.46306 376.1936,608.10632 C 376.09049,607.7496 376.03894,607.5434 376.03896,607.48773 C 376.03894,607.43207 375.97941,607.24572 375.86035,606.92867 C 375.74127,606.61164 375.68173,606.42929 375.68174,606.3816 C 375.68173,606.33393 375.62631,606.17529 375.51548,605.90568 C 375.40462,605.63608 375.3492,605.46159 375.34921,605.3822 C 375.3492,605.30283 375.29765,605.13233 375.19456,604.8707 C 375.09146,604.60909 375.02793,604.47828 375.00398,604.47827 C 374.98001,604.47828 374.93233,604.35134 374.86095,604.09746 C 374.78954,603.8436 374.73811,603.71666 374.70666,603.71665 C 374.43705,603.71666 374.25457,603.66923 374.15922,603.57434 C 374.11178,603.52644 373.92156,603.57387 373.58855,603.71665 C 373.52514,603.78007 373.43002,603.89115 373.30322,604.0499 C 373.0336,604.62107 372.8988,604.99377 372.89881,605.16801 C 372.8988,605.21546 372.78772,605.46522 372.56555,605.91729 C 372.34338,606.36939 372.21245,606.61527 372.17276,606.65495 C 372.13306,606.69465 371.90702,607.13488 371.49464,607.97563 C 371.38379,608.26122 371.19356,608.65764 370.92396,609.16489 C 370.87604,609.45048 370.78093,609.75977 370.63863,610.09278 C 370.5273,610.14022 370.20203,610.71912 369.66282,611.82948 C 369.61538,611.94081 369.38946,612.25023 368.98506,612.75773 C 368.58065,613.26524 368.36259,613.51899 368.33089,613.51899 C 368.29918,613.51899 368.23178,613.62996 368.12869,613.85188 C 368.02559,614.07381 367.97404,614.21648 367.97404,614.27989 C 367.97404,614.70825 367.92636,615.01755 367.83101,615.20777 C 367.60884,615.6676 367.49775,616.01659 367.49775,616.25473 C 367.49775,616.42898 367.42636,616.60347 367.28357,616.77821 C 367.1887,616.80967 367.0856,616.84138 366.97427,616.87332 C 366.94281,616.80991 366.86367,616.72279 366.73686,616.61194 L 366.73686,616.61194 z M 370.16234,610.02163 C 370.67008,610.2438 370.94768,610.35876 370.99512,610.3665 C 371.04255,610.37425 371.18533,610.3941 371.42348,610.42604 C 371.67711,610.4575 371.81191,610.4575 371.82789,610.42604 C 372.11346,610.37861 372.44647,610.3152 372.82693,610.23581 C 372.87484,610.20387 373.01763,610.14821 373.2553,610.06882 L 373.6597,609.94975 C 373.84992,609.85489 374.07983,609.80745 374.34945,609.80744 C 374.41285,609.80745 374.57947,609.8233 374.84933,609.855 C 375.11917,609.88671 375.26183,609.89458 375.27733,609.8786 C 375.2933,609.86263 375.38853,609.83492 375.56303,609.79546 C 375.73752,609.75602 375.84848,609.71234 375.89592,609.66441 C 376.21344,609.34738 376.37994,609.17289 376.39544,609.14093 C 376.50676,608.96669 376.60211,608.83988 376.68151,608.76049 C 376.85575,608.04703 377.22845,609.16514 377.79962,612.11482 C 377.78363,612.08336 377.73595,612.08336 377.65659,612.11482 C 377.59317,612.1308 377.52177,612.15475 377.4424,612.1867 C 377.41093,612.1867 377.33167,612.10345 377.20462,611.93694 C 377.07755,611.77044 377.01402,611.68718 377.01403,611.68718 C 376.74442,611.41758 376.56218,611.28277 376.46732,611.28277 C 376.43537,611.28277 376.29258,611.2668 376.03896,611.23485 L 375.63455,611.21089 C 375.3964,611.2109 375.20593,611.28229 375.06315,611.42507 C 375.03168,611.45703 374.893,611.53241 374.64713,611.65124 C 374.40123,611.77007 374.25445,611.82949 374.20678,611.82948 C 374.15909,611.82949 373.93704,611.89289 373.54063,612.01971 C 373.1442,612.14653 372.93014,612.22591 372.89844,612.25785 C 372.86673,612.2898 372.69224,612.34534 372.37497,612.42448 C 372.05768,612.50362 371.85947,612.54319 371.78033,612.54318 C 371.70119,612.54319 371.52282,612.59074 371.24524,612.68585 C 370.96764,612.78097 370.78916,612.82852 370.70978,612.82852 C 370.72575,612.82852 370.40048,612.93961 369.73397,613.16178 C 369.68654,613.17775 369.38523,613.29682 368.83005,613.51899 C 368.08464,613.89944 367.73565,614.08966 367.78309,614.08966 C 367.73565,614.08966 368.52874,612.73365 370.16234,610.02163 L 370.16234,610.02163 z M 390.44516,600.44581 C 390.31059,600.42211 390.2116,600.41025 390.1482,600.41024 L 389.67264,600.41024 C 389.46644,600.41025 389.23241,600.48152 388.97056,600.62406 C 388.70869,600.76662 388.46667,600.9013 388.24451,601.0281 C 387.30888,601.28223 386.46037,601.78998 385.699,602.55134 L 384.81903,603.43131 C 384.72367,603.52668 384.59673,603.66547 384.43822,603.8477 C 384.27969,604.02995 384.15276,604.16874 384.05741,604.26409 C 383.80377,604.47029 383.52618,604.76362 383.22463,605.14405 C 383.1772,605.33477 383.06635,605.63632 382.8921,606.04871 C 382.7648,606.20699 382.58232,606.45264 382.34467,606.78564 C 382.23382,607.07123 382.05134,607.44393 381.79723,607.90375 C 381.62297,608.10996 381.45647,608.45096 381.29771,608.92675 C 381.07554,610.03712 380.96445,610.81448 380.96445,611.25881 L 380.96445,612.68622 C 380.96445,612.74963 381.00414,613.05892 381.08352,613.6141 L 381.17864,614.47011 C 381.17864,614.54949 381.30158,614.82321 381.54747,615.29127 C 381.79335,615.75933 381.94413,615.99335 381.99979,615.99335 C 382.05546,615.99335 382.2815,616.11618 382.67792,616.36182 C 383.07434,616.60747 383.28828,616.73029 383.31974,616.73029 C 383.4151,616.73029 383.70866,616.75425 384.20044,616.80217 L 385.08041,616.87332 C 385.2866,616.87332 385.59589,616.84948 386.00829,616.80181 C 386.42068,616.75413 386.73796,616.73029 386.96014,616.73029 C 387.02354,616.73029 387.26543,616.66289 387.68582,616.52809 C 388.10619,616.39328 388.35607,616.30217 388.43546,616.25473 C 389.05405,615.95318 389.76775,615.40598 390.57657,614.61314 C 391.00444,614.20075 391.22637,613.97882 391.24236,613.94736 C 391.35367,613.82006 391.50445,613.57417 391.69468,613.20969 C 391.83746,612.92412 391.94056,612.74963 392.00398,612.68622 C 392.14675,612.43259 392.32899,612.11531 392.55069,611.73437 C 392.61457,611.63902 392.72178,611.39313 392.87233,610.99671 C 393.02285,610.60029 393.09812,610.34654 393.09813,610.23545 C 393.09812,610.12437 393.10997,609.94201 393.1337,609.68837 C 393.15741,609.43475 393.16927,609.24452 393.16928,609.1177 C 393.16927,609.06979 393.18524,608.87134 393.2172,608.52234 L 393.24116,607.95167 C 393.24115,607.8723 393.21731,607.76121 393.16964,607.61842 C 393.12195,607.47564 393.09812,607.36455 393.09813,607.28516 L 391.59957,607.28516 L 390.43354,607.33308 C 390.32269,607.33309 390.13246,607.35693 389.86287,607.4046 C 389.59325,607.45228 389.4069,607.47612 389.30381,607.47611 C 389.20071,607.47612 389.01036,607.52368 388.73278,607.61878 C 388.45518,607.7139 388.26871,607.76146 388.17336,607.76145 C 387.66609,607.76146 387.32509,607.80889 387.15036,607.90375 C 387.10292,607.93571 387.01967,608.01908 386.9006,608.15388 C 386.78152,608.28869 386.72199,608.37993 386.722,608.42759 C 386.72199,608.47528 386.69028,608.59423 386.62688,608.78445 C 386.56347,608.97468 386.53176,609.08165 386.53177,609.10536 C 386.53176,609.12908 386.48433,609.33939 386.38947,609.73629 C 386.34154,609.97396 386.34154,610.1165 386.38947,610.16393 C 386.40495,610.17991 386.43653,610.25131 386.48422,610.37812 C 386.53189,610.50494 386.56371,610.56835 386.57969,610.56834 C 386.81734,610.56835 386.96013,610.59231 387.00806,610.64022 C 387.07146,610.70363 387.20626,610.63224 387.41246,610.42604 C 387.45989,610.37861 387.48361,610.3152 387.48362,610.23581 C 387.48361,610.09303 388.07824,610.02163 389.26751,610.02163 C 389.31542,610.02163 389.68038,609.99768 390.36239,609.94975 L 390.7668,610.23581 C 390.76679,610.3941 390.7905,610.57633 390.83795,610.78252 C 390.96475,610.89386 391.02816,611.01293 391.02817,611.13974 C 391.02816,611.20315 391.01243,611.26656 390.98098,611.32996 C 390.86964,611.66298 390.73484,612.0277 390.57657,612.42411 C 390.52864,612.45606 390.36988,612.70994 390.10029,613.18574 C 389.942,613.32853 389.68837,613.55046 389.33939,613.85152 C 388.54606,614.54949 388.08599,614.89848 387.95918,614.89848 C 387.54678,614.89848 387.27717,614.96189 387.15036,615.0887 C 387.10292,615.13662 386.89672,615.16058 386.53177,615.16058 C 386.15132,615.17607 385.94512,615.15211 385.91318,615.0887 C 385.83379,614.96189 385.50877,614.89848 384.9381,614.89848 C 384.85872,614.89848 384.71593,614.84306 384.50973,614.73221 C 384.22415,614.62089 384.07338,614.55748 384.05741,614.54199 C 383.86718,614.47858 383.67296,614.37548 383.47476,614.23269 C 383.27654,614.08991 383.13775,613.99867 383.05837,613.95897 C 382.97898,613.91929 382.92344,613.7408 382.89174,613.42352 C 382.86003,613.10624 382.8362,612.93186 382.82023,612.9004 C 382.77279,612.80505 382.74907,612.34498 382.74907,611.52019 C 382.74907,610.6954 382.79675,610.19589 382.8921,610.02163 C 382.98697,609.65668 383.09781,609.22057 383.22463,608.71329 C 383.31998,608.45919 383.43906,608.11819 383.58185,607.6903 C 383.78804,607.2934 384.00997,606.85705 384.24763,606.38124 C 384.48577,606.11164 384.73964,605.7946 385.00925,605.43012 C 385.15204,605.14455 385.38195,604.843 385.699,604.52546 C 385.9686,604.31928 386.26216,604.08936 386.57969,603.83572 C 386.61115,603.83573 386.75781,603.75647 387.01967,603.59794 C 387.28153,603.43943 387.43617,603.33621 387.48362,603.28828 C 387.73724,603.16148 388.05452,602.97924 388.43546,602.74157 C 388.73652,602.67817 389.08527,602.56709 389.48169,602.40831 C 389.5296,602.36089 389.66453,602.29748 389.88647,602.21809 C 390.10838,602.13872 390.21935,602.08717 390.21936,602.06344 C 390.21935,602.03974 390.26303,601.99218 390.35041,601.92077 C 390.43777,601.84939 390.48919,601.80571 390.50469,601.78972 C 390.71088,601.36137 390.79825,601.13146 390.7668,601.09998 C 390.75081,601.08402 390.73484,600.97294 390.71888,600.76672 C 390.6874,600.60798 390.66768,600.52073 390.6597,600.50498 C 390.65171,600.48927 390.58019,600.46955 390.44516,600.44581 L 390.44516,600.44581 z M 396.40599,616.77821 C 396.35856,616.80967 396.23961,616.7263 396.04914,616.52809 C 395.85868,616.32988 395.74771,616.19108 395.71625,616.1117 C 395.58895,615.46165 395.44616,614.76392 395.28788,614.01851 L 395.28788,612.04367 C 395.28788,612.05964 395.31959,611.75833 395.383,611.13974 C 395.4464,610.52115 395.46213,610.18015 395.43019,610.11674 C 395.4147,610.0848 395.4147,609.83093 395.43019,609.35512 C 395.44616,608.87932 395.43842,608.61771 395.40696,608.57026 C 395.37501,608.52284 395.37501,608.26896 395.40696,607.80864 L 395.45415,606.99983 C 395.45415,606.92045 395.44616,606.64286 395.43019,606.16705 L 395.383,605.40616 C 395.38299,605.26338 395.42269,605.04919 395.50207,604.76361 C 395.58145,604.47804 395.62114,604.26386 395.62114,604.12105 C 395.62114,604.0262 395.65671,603.79241 395.72787,603.41969 C 395.79902,603.047 395.85057,602.84468 395.88252,602.81272 C 396.07274,602.65397 396.26296,602.48747 396.45319,602.3132 C 396.48513,602.28127 396.65575,602.22173 396.96505,602.13459 C 397.27434,602.04748 397.43685,601.98807 397.45259,601.95635 C 397.46832,601.92466 397.57154,601.90881 397.76225,601.90879 L 397.64318,603.66945 L 397.45295,605.00175 C 397.40503,605.54097 397.33364,606.35777 397.23877,607.45215 C 397.15938,608.15013 397.12768,608.51485 397.14366,608.5463 C 397.17512,608.54631 397.17512,608.7922 397.14366,609.28397 C 397.09573,609.93403 397.07178,610.21162 397.07178,610.11674 C 397.07178,610.21162 397.06391,610.36215 397.04818,610.56834 C 397.03245,610.77454 397.02458,610.92532 397.02459,611.02067 C 397.02458,611.13152 397.05629,611.32573 397.1197,611.60332 C 397.1831,611.88091 397.21481,612.07126 397.21481,612.17435 C 397.21481,612.27746 397.23852,612.51148 397.28596,612.87644 C 397.3179,613.14605 397.3179,613.32853 397.28596,613.42388 C 397.2545,613.50278 397.23877,613.65331 397.23877,613.87548 C 397.23877,613.98681 397.25462,614.15344 397.28632,614.37536 C 397.31803,614.59729 397.33388,614.77166 397.33388,614.89848 C 397.33388,615.31087 397.3179,615.54877 397.28596,615.61218 C 397.11171,615.97714 396.81839,616.36582 396.40599,616.77821 L 396.40599,616.77821 z M 397.50014,602.02787 C 397.62696,602.02788 397.83315,601.98819 398.11874,601.90879 C 398.70586,601.87686 399.32445,601.82919 399.97451,601.76576 C 400.29154,601.73432 400.65626,601.68688 401.06866,601.62346 C 401.40215,601.6075 401.81454,601.55982 402.30584,601.48043 L 403.47187,601.48043 C 403.55124,601.48044 403.67419,601.50428 403.8407,601.55194 C 404.0072,601.59963 404.13014,601.62347 404.20953,601.62346 C 404.81214,601.62347 405.16113,601.67091 405.25649,601.76576 C 405.27197,601.78175 405.36696,601.80559 405.54146,601.83728 C 405.71595,601.869 405.80319,601.89284 405.8032,601.90879 C 405.8666,601.98819 405.90629,602.14671 405.92227,602.38435 C 405.87483,602.54313 405.81142,602.72561 405.73205,602.93179 C 405.4939,603.16946 405.32739,603.31225 405.23253,603.36016 C 405.05779,603.40761 404.87531,603.44718 404.68509,603.47887 C 404.49486,603.51058 404.17758,603.55015 403.73325,603.59758 C 403.44814,603.62953 403.26591,603.64551 403.18653,603.64549 C 403.02776,603.64551 402.78587,603.66935 402.46085,603.71701 C 402.13582,603.7647 401.89392,603.78854 401.73517,603.78853 L 400.18869,603.78853 C 399.3639,603.78854 398.95151,603.78854 398.95151,603.78853 C 398.79274,603.80403 398.46772,603.85146 397.97643,603.93083 C 397.91302,603.93084 397.75426,604.03394 397.50014,604.24013 C 397.42076,604.30355 397.36534,604.33525 397.33388,604.33524 C 397.2545,604.33525 397.21481,604.25611 397.21481,604.09782 C 397.21481,603.98651 397.25837,603.61368 397.3455,602.97935 C 397.43262,602.34504 397.48417,602.02788 397.50014,602.02787 L 397.50014,602.02787 z M 396.88155,608.28493 C 397.34186,608.39578 397.61147,608.4512 397.69037,608.45119 C 397.97594,608.4512 398.2378,608.42748 398.47595,608.38004 C 398.85639,608.30067 399.1577,608.22927 399.37988,608.16586 C 399.42731,608.13392 399.58982,608.07039 399.86742,607.97527 C 400.145,607.88017 400.3155,607.83261 400.37892,607.8326 C 400.44232,607.83261 400.63278,607.81688 400.95031,607.78541 L 401.44983,607.73749 L 402.21073,607.73749 C 402.30608,607.7375 402.44499,607.72564 402.62748,607.70191 C 402.80995,607.6782 402.94863,607.66634 403.0435,607.66634 C 403.15482,607.66634 403.32944,607.6782 403.56735,607.70191 C 403.80524,607.72564 403.97961,607.7375 404.09046,607.73749 C 404.15386,607.7375 404.27281,607.7692 404.44731,607.8326 C 404.6218,607.89602 404.73276,607.92772 404.78021,607.92771 C 404.95493,607.92772 405.06601,608.07051 405.11346,608.35608 C 405.06601,608.35609 404.95493,608.49888 404.78021,608.78445 C 404.27293,609.11747 403.78914,609.28397 403.32884,609.28397 C 402.78962,609.28397 402.27425,609.34738 401.78273,609.47419 C 401.29119,609.60101 400.79953,609.72783 400.30776,609.85464 L 398.99943,610.11674 C 398.74531,610.16418 398.35663,610.25929 397.8334,610.40208 C 397.04056,610.71912 396.67584,610.87764 396.73925,610.87764 C 396.69133,610.87764 396.73876,610.01341 396.88155,608.28493 L 396.88155,608.28493 z M 396.88155,614.18477 C 397.45271,614.2961 397.762,614.35177 397.80944,614.35176 C 397.61921,614.35177 397.75414,614.37149 398.21421,614.41094 C 398.67428,614.45039 398.92803,614.46237 398.97547,614.44688 C 399.03887,614.41493 399.37987,614.39896 399.99847,614.39896 C 400.22063,614.39896 400.49822,614.35927 400.83124,614.27989 C 401.43385,614.1371 401.75888,614.06571 401.80632,614.0657 C 401.72693,614.06571 402.04422,613.94688 402.75817,613.70921 C 403.2814,613.53448 403.6541,613.44711 403.87628,613.44711 L 404.85208,613.44711 C 405.0423,613.44711 405.21655,613.5265 405.37484,613.68525 C 405.6604,613.97084 405.77947,614.13734 405.73205,614.18477 C 405.6846,614.24818 405.58949,614.33555 405.44672,614.44688 C 405.08175,614.6371 404.71679,614.73221 404.35184,614.73221 C 404.28842,614.73221 404.0982,614.80361 403.78117,614.9464 C 403.4162,615.10468 403.21,615.1918 403.16258,615.20777 C 403.11513,615.22375 402.91692,615.26344 402.56794,615.32684 L 402.09166,615.44592 C 402.02824,615.46189 401.98081,615.46988 401.94935,615.46988 C 401.39416,615.64413 400.93022,615.80265 400.55752,615.94543 C 400.18481,616.08822 399.3956,616.31814 398.18989,616.63518 C 397.65068,616.77797 397.32565,616.82564 397.21481,616.77821 C 396.92923,616.77821 396.63591,616.77821 396.33484,616.77821 C 396.33484,616.73077 396.51708,615.8663 396.88155,614.18477 L 396.88155,614.18477 z"
         id="text2511"
         style="font-size:23.79106522px;font-style:normal;font-variant:normal;font-weight:normal;font-stretch:normal;text-align:center;text-anchor:middle;fill:#404040;fill-opacity:1;stroke:none;stroke-width:1px;stroke-linecap:butt;stroke-linejoin:miter;stroke-opacity:1;font-family:Comic Strip;-inkscape-font-specification:Comic Strip" />
      <path
         d="M 298.55762,644.95704 C 298.43032,644.89315 298.35094,644.84547 298.31948,644.81401 C 298.19266,644.52843 298.12925,644.20316 298.12925,643.8382 C 298.12925,643.50519 298.19266,643.12474 298.31948,642.69686 C 298.65249,642.03035 298.89039,641.4909 299.03318,641.0785 C 299.25535,640.69806 299.53294,640.11916 299.86596,639.3418 C 299.89741,639.21499 300.05993,638.90182 300.3535,638.4023 C 300.64706,637.90278 300.79384,637.60535 300.79384,637.50999 C 300.79384,637.28782 301.02375,636.73264 301.48359,635.84444 C 301.51553,635.78104 301.79312,635.28951 302.31636,634.36984 C 302.47512,634.13171 302.66534,633.78272 302.88703,633.32288 C 303.09322,632.94245 303.40252,632.35568 303.81492,631.56258 C 304.22731,630.76951 304.4335,630.36099 304.43351,630.33702 C 304.4335,630.31307 304.45746,630.03948 304.50539,629.51622 C 304.79047,629.34199 304.94899,629.25486 304.98095,629.25485 L 305.6235,629.25485 C 305.89309,629.25486 306.10316,629.17548 306.25371,629.0167 C 306.40423,628.85796 306.59058,628.72316 306.81276,628.6123 C 306.90811,628.56488 307.09857,628.54116 307.38416,628.54114 L 307.64554,628.89763 L 308.35924,630.37296 L 308.97783,632.10966 L 309.47735,634.22681 C 309.47734,634.27425 309.62013,634.94827 309.90572,636.24885 C 310.03252,636.80404 310.19104,637.39092 310.38128,638.00951 C 310.44467,638.04146 310.53192,638.36673 310.64301,638.98531 C 310.75409,639.60391 310.83347,639.9132 310.88116,639.9132 C 310.92882,639.9132 310.97638,640.15909 311.02383,640.65086 C 311.07125,641.04729 311.09496,641.29704 311.09498,641.40014 C 311.09496,641.50324 311.13465,641.77285 311.21405,642.20895 C 311.29342,642.64507 311.34908,642.87885 311.38104,642.91031 C 311.41249,642.94226 311.41249,643.11676 311.38104,643.43379 C 311.33311,643.63999 311.28543,643.95727 311.23801,644.38564 C 311.20605,644.63927 311.18233,644.78206 311.16686,644.81401 C 310.97614,645.00423 310.80963,645.09934 310.66734,645.09934 C 310.30237,645.09934 310.12787,645.09934 310.14386,645.09934 C 310.03252,645.08337 309.93716,644.97228 309.8578,644.76609 C 309.81035,644.65524 309.77864,644.57611 309.76268,644.52867 L 309.76268,643.91008 C 309.76267,643.54512 309.68353,642.98195 309.52527,642.22057 C 309.4299,641.68136 309.30284,641.09448 309.14409,640.45991 C 309.09665,640.42845 309.04123,640.26993 308.97783,639.98435 C 308.91441,639.69878 308.87085,639.55599 308.84714,639.55598 C 308.82341,639.55599 308.76388,639.33394 308.66853,638.88984 C 308.57317,638.44575 308.50964,638.2237 308.47795,638.22369 C 308.44623,638.2237 308.40666,638.03735 308.35924,637.66463 C 308.31179,637.29194 308.26412,637.07388 308.21621,637.01047 C 308.18473,636.9945 308.11745,636.80815 308.01437,636.45141 C 307.91126,636.09469 307.85971,635.88849 307.85972,635.83282 C 307.85971,635.77717 307.80017,635.59082 307.68111,635.27377 C 307.56203,634.95674 307.50249,634.77438 307.5025,634.72669 C 307.50249,634.67902 307.44707,634.52038 307.33624,634.25077 C 307.22539,633.98117 307.16997,633.80668 307.16998,633.72729 C 307.16997,633.64792 307.11842,633.47742 307.01533,633.21579 C 306.91222,632.95418 306.84869,632.82337 306.82474,632.82336 C 306.80077,632.82337 306.75309,632.69644 306.68171,632.44255 C 306.61031,632.18869 306.55888,632.06175 306.52742,632.06174 C 306.25781,632.06175 306.07533,632.01432 305.97999,631.91944 C 305.93254,631.87153 305.74232,631.91896 305.40931,632.06174 C 305.3459,632.12516 305.25079,632.23625 305.12398,632.395 C 304.85437,632.96616 304.71956,633.33887 304.71957,633.51311 C 304.71956,633.56055 304.60848,633.81031 304.38632,634.26238 C 304.16414,634.71448 304.03321,634.96037 303.99353,635.00005 C 303.95383,635.03975 303.72779,635.47997 303.3154,636.32072 C 303.20455,636.60631 303.01433,637.00273 302.74473,637.50999 C 302.6968,637.79557 302.60169,638.10487 302.45939,638.43787 C 302.34806,638.48531 302.02279,639.06421 301.48359,640.17457 C 301.43615,640.28591 301.21023,640.59532 300.80582,641.10282 C 300.40141,641.61033 300.18336,641.86409 300.15165,641.86408 C 300.11995,641.86409 300.05255,641.97505 299.94945,642.19697 C 299.84635,642.41891 299.7948,642.56157 299.7948,642.62498 C 299.7948,643.05335 299.74712,643.36264 299.65177,643.55287 C 299.4296,644.0127 299.31852,644.36168 299.31852,644.59982 C 299.31852,644.77407 299.24712,644.94857 299.10433,645.1233 C 299.00946,645.15476 298.90636,645.18647 298.79504,645.21841 C 298.76357,645.15501 298.68444,645.06788 298.55762,644.95704 L 298.55762,644.95704 z M 301.9831,638.36672 C 302.49085,638.5889 302.76844,638.70385 302.81588,638.71159 C 302.86331,638.71934 303.0061,638.73919 303.24425,638.77113 C 303.49787,638.8026 303.63267,638.8026 303.64865,638.77113 C 303.93422,638.7237 304.26724,638.66029 304.64769,638.5809 C 304.6956,638.54896 304.83839,638.4933 305.07606,638.41391 L 305.48047,638.29484 C 305.67068,638.19998 305.9006,638.15254 306.17021,638.15254 C 306.23361,638.15254 306.40024,638.1684 306.67009,638.20009 C 306.93993,638.2318 307.0826,638.23967 307.0981,638.22369 C 307.11406,638.20772 307.20929,638.18001 307.3838,638.14056 C 307.55828,638.10112 307.66924,638.05743 307.71669,638.00951 C 308.0342,637.69247 308.20071,637.51798 308.21621,637.48603 C 308.32752,637.31178 308.42288,637.18497 308.50227,637.10558 C 308.67651,636.39213 309.04921,637.51024 309.62038,640.45991 C 309.60439,640.42845 309.55672,640.42845 309.47735,640.45991 C 309.41393,640.47589 309.34253,640.49985 309.26316,640.53179 C 309.23169,640.53179 309.15243,640.44854 309.02538,640.28203 C 308.89832,640.11553 308.83479,640.03227 308.8348,640.03227 C 308.56518,639.76267 308.38294,639.62787 308.28809,639.62786 C 308.25613,639.62787 308.11334,639.61189 307.85972,639.57994 L 307.45531,639.55598 C 307.21716,639.55599 307.02669,639.62738 306.88391,639.77017 C 306.85244,639.80212 306.71377,639.87751 306.46789,639.99633 C 306.22199,640.11516 306.07521,640.17458 306.02754,640.17457 C 305.97986,640.17458 305.75781,640.23799 305.3614,640.3648 C 304.96497,640.49162 304.7509,640.571 304.71921,640.60294 C 304.6875,640.63489 304.513,640.69043 304.19573,640.76957 C 303.87844,640.84871 303.68023,640.88828 303.6011,640.88828 C 303.52195,640.88828 303.34359,640.93584 303.066,641.03095 C 302.7884,641.12606 302.60992,641.17362 302.53054,641.17361 C 302.54651,641.17362 302.22124,641.2847 301.55474,641.50687 C 301.5073,641.52284 301.20599,641.64192 300.65081,641.86408 C 299.9054,642.24453 299.55642,642.43476 299.60385,642.43475 C 299.55642,642.43476 300.3495,641.07875 301.9831,638.36672 L 301.9831,638.36672 z M 319.51856,645.2068 C 319.51855,645.24649 319.39149,645.29005 319.13739,645.33749 C 318.89972,645.38492 318.78089,645.38492 318.7809,645.33749 C 318.78089,645.38492 318.52702,645.16275 318.01928,644.67098 C 317.84502,644.54416 317.59139,644.33796 317.25838,644.05238 C 316.79855,643.5611 316.40987,643.1487 316.09235,642.8152 C 315.83871,642.51414 315.49772,642.05431 315.06935,641.43572 C 314.81572,641.02333 314.49069,640.46016 314.09427,639.74621 C 313.69737,638.85802 313.49891,638.30308 313.49892,638.08138 C 313.49891,638.03347 313.41977,637.70022 313.2615,637.08162 L 312.9994,636.15373 C 312.99939,635.99546 312.96769,635.75369 312.90428,635.42841 C 312.84088,635.10316 312.80917,634.86138 312.80917,634.70309 C 312.80917,634.62372 312.80118,634.37784 312.78521,633.96543 L 312.73802,633.20381 C 312.73802,632.55377 312.75375,632.18905 312.78521,632.10966 C 312.97592,631.82409 313.16639,631.5465 313.35661,631.27688 C 313.57878,631.22946 313.7373,631.20575 313.83217,631.20573 C 313.8162,631.20575 313.91131,631.28488 314.11751,631.44315 C 314.21286,631.52254 314.30821,631.60192 314.40357,631.68129 C 314.43503,631.71325 314.48246,631.85604 314.54587,632.10966 C 314.62525,632.42671 314.66494,632.60895 314.66494,632.65637 C 314.66494,633.25949 314.70463,633.83064 314.78402,634.36984 L 314.9982,635.8212 L 315.33145,637.17673 L 315.7591,638.41391 L 316.23538,639.50879 L 316.78209,640.45991 C 316.9728,640.8089 317.15528,641.08649 317.32953,641.29269 C 317.37696,641.30866 317.45223,641.38006 317.55533,641.50687 C 317.65843,641.63369 317.72595,641.6971 317.7579,641.69709 C 318.0275,641.93524 318.1623,642.03059 318.16231,641.98315 C 318.20974,641.87183 318.35252,641.59424 318.59067,641.15038 C 318.92368,640.27768 319.09019,639.7225 319.09019,639.48483 C 319.09019,639.3101 319.19328,638.94914 319.39949,638.40193 C 319.60568,637.85474 319.70878,637.50999 319.70878,637.36768 C 319.70878,637.33574 319.81587,637.08187 320.03006,636.60606 C 320.24423,636.13027 320.35133,635.86865 320.35133,635.8212 C 320.35133,635.67842 320.54155,635.23433 320.92201,634.48891 C 321.09673,633.99715 321.30293,633.48165 321.5406,632.94243 C 321.58802,632.9105 321.83391,632.45043 322.27826,631.56222 C 322.64321,630.8328 322.82569,630.34901 322.8257,630.11086 C 322.84118,630.03149 322.88062,629.83328 322.94404,629.51622 C 323.11877,629.4688 323.30923,629.39741 323.51544,629.30204 C 323.62627,629.19121 323.87216,629.14378 324.2531,629.15974 C 324.25309,629.19121 324.30065,629.26249 324.39577,629.37356 C 324.49087,629.48466 324.53843,629.54819 324.53844,629.56414 C 324.53843,629.65903 324.55029,629.78972 324.57402,629.95621 C 324.59772,630.12273 324.60958,630.24567 324.60959,630.32504 C 324.60958,630.37297 324.46679,630.60289 324.18123,631.01478 C 324.08634,631.25294 324.00321,631.47511 323.93183,631.68129 C 323.86042,631.8875 323.51543,632.72802 322.89685,634.20285 C 322.34166,635.56686 322.06407,636.27269 322.06408,636.32036 C 322.06407,636.36805 321.98081,636.65362 321.81432,637.1771 C 321.6478,637.70058 321.54857,637.97805 321.51664,638.00951 C 321.37384,638.51726 321.21532,639.06446 321.04108,639.6511 C 320.62868,640.47589 320.42248,641.00735 320.42249,641.24549 C 320.42248,641.3089 320.37492,641.54281 320.27982,641.94722 C 320.1847,642.35163 320.12117,642.58553 320.08923,642.64894 C 320.04179,642.93452 319.97039,643.30722 319.87505,643.76705 C 319.82761,643.8624 319.80389,644.18767 319.8039,644.74285 C 319.61366,645.01246 319.51855,645.16711 319.51856,645.2068 L 319.51856,645.2068 z M 326.20544,644.95704 C 326.07814,644.89315 325.99876,644.84547 325.9673,644.81401 C 325.84048,644.52843 325.77707,644.20316 325.77707,643.8382 C 325.77707,643.50519 325.84048,643.12474 325.9673,642.69686 C 326.30031,642.03035 326.53821,641.4909 326.681,641.0785 C 326.90317,640.69806 327.18076,640.11916 327.51377,639.3418 C 327.54523,639.21499 327.70775,638.90182 328.00131,638.4023 C 328.29488,637.90278 328.44166,637.60535 328.44166,637.50999 C 328.44166,637.28782 328.67157,636.73264 329.1314,635.84444 C 329.16335,635.78104 329.44094,635.28951 329.96418,634.36984 C 330.12294,634.13171 330.31316,633.78272 330.53485,633.32288 C 330.74104,632.94245 331.05034,632.35568 331.46274,631.56258 C 331.87512,630.76951 332.08132,630.36099 332.08133,630.33702 C 332.08132,630.31307 332.10528,630.03948 332.15321,629.51622 C 332.43829,629.34199 332.59681,629.25486 332.62877,629.25485 L 333.27132,629.25485 C 333.54091,629.25486 333.75098,629.17548 333.90152,629.0167 C 334.05205,628.85796 334.2384,628.72316 334.46058,628.6123 C 334.55592,628.56488 334.74639,628.54116 335.03198,628.54114 L 335.29335,628.89763 L 336.00706,630.37296 L 336.62565,632.10966 L 337.12517,634.22681 C 337.12516,634.27425 337.26794,634.94827 337.55353,636.24885 C 337.68034,636.80404 337.83886,637.39092 338.02909,638.00951 C 338.09249,638.04146 338.17974,638.36673 338.29083,638.98531 C 338.40191,639.60391 338.48129,639.9132 338.52898,639.9132 C 338.57664,639.9132 338.6242,640.15909 338.67165,640.65086 C 338.71907,641.04729 338.74278,641.29704 338.7428,641.40014 C 338.74278,641.50324 338.78247,641.77285 338.86187,642.20895 C 338.94124,642.64507 338.9969,642.87885 339.02886,642.91031 C 339.06031,642.94226 339.06031,643.11676 339.02886,643.43379 C 338.98093,643.63999 338.93325,643.95727 338.88583,644.38564 C 338.85387,644.63927 338.83015,644.78206 338.81468,644.81401 C 338.62395,645.00423 338.45745,645.09934 338.31516,645.09934 C 337.95018,645.09934 337.77569,645.09934 337.79168,645.09934 C 337.68034,645.08337 337.58498,644.97228 337.50562,644.76609 C 337.45817,644.65524 337.42646,644.57611 337.4105,644.52867 L 337.4105,643.91008 C 337.41049,643.54512 337.33135,642.98195 337.17309,642.22057 C 337.07772,641.68136 336.95066,641.09448 336.79191,640.45991 C 336.74447,640.42845 336.68904,640.26993 336.62565,639.98435 C 336.56223,639.69878 336.51867,639.55599 336.49496,639.55598 C 336.47123,639.55599 336.4117,639.33394 336.31635,638.88984 C 336.22099,638.44575 336.15746,638.2237 336.12577,638.22369 C 336.09405,638.2237 336.05448,638.03735 336.00706,637.66463 C 335.95961,637.29194 335.91193,637.07388 335.86403,637.01047 C 335.83255,636.9945 335.76527,636.80815 335.66219,636.45141 C 335.55908,636.09469 335.50753,635.88849 335.50754,635.83282 C 335.50753,635.77717 335.44799,635.59082 335.32893,635.27377 C 335.20985,634.95674 335.15031,634.77438 335.15032,634.72669 C 335.15031,634.67902 335.09489,634.52038 334.98406,634.25077 C 334.87321,633.98117 334.81778,633.80668 334.81779,633.72729 C 334.81778,633.64792 334.76624,633.47742 334.66315,633.21579 C 334.56004,632.95418 334.49651,632.82337 334.47256,632.82336 C 334.44859,632.82337 334.40091,632.69644 334.32953,632.44255 C 334.25813,632.18869 334.2067,632.06175 334.17524,632.06174 C 333.90563,632.06175 333.72315,632.01432 333.62781,631.91944 C 333.58036,631.87153 333.39014,631.91896 333.05713,632.06174 C 332.99372,632.12516 332.89861,632.23625 332.7718,632.395 C 332.50219,632.96616 332.36738,633.33887 332.36739,633.51311 C 332.36738,633.56055 332.2563,633.81031 332.03414,634.26238 C 331.81196,634.71448 331.68103,634.96037 331.64134,635.00005 C 331.60165,635.03975 331.37561,635.47997 330.96322,636.32072 C 330.85237,636.60631 330.66215,637.00273 330.39255,637.50999 C 330.34462,637.79557 330.24951,638.10487 330.10721,638.43787 C 329.99588,638.48531 329.67061,639.06421 329.1314,640.17457 C 329.08397,640.28591 328.85804,640.59532 328.45364,641.10282 C 328.04923,641.61033 327.83118,641.86409 327.79947,641.86408 C 327.76777,641.86409 327.70037,641.97505 327.59727,642.19697 C 327.49417,642.41891 327.44262,642.56157 327.44262,642.62498 C 327.44262,643.05335 327.39494,643.36264 327.29959,643.55287 C 327.07742,644.0127 326.96633,644.36168 326.96634,644.59982 C 326.96633,644.77407 326.89494,644.94857 326.75215,645.1233 C 326.65728,645.15476 326.55418,645.18647 326.44286,645.21841 C 326.41139,645.15501 326.33226,645.06788 326.20544,644.95704 L 326.20544,644.95704 z M 329.63092,638.36672 C 330.13867,638.5889 330.41626,638.70385 330.4637,638.71159 C 330.51113,638.71934 330.65392,638.73919 330.89207,638.77113 C 331.14569,638.8026 331.28049,638.8026 331.29647,638.77113 C 331.58204,638.7237 331.91506,638.66029 332.29551,638.5809 C 332.34342,638.54896 332.48621,638.4933 332.72388,638.41391 L 333.12829,638.29484 C 333.3185,638.19998 333.54842,638.15254 333.81803,638.15254 C 333.88143,638.15254 334.04806,638.1684 334.31791,638.20009 C 334.58775,638.2318 334.73042,638.23967 334.74592,638.22369 C 334.76188,638.20772 334.85711,638.18001 335.03162,638.14056 C 335.2061,638.10112 335.31706,638.05743 335.36451,638.00951 C 335.68202,637.69247 335.84853,637.51798 335.86403,637.48603 C 335.97534,637.31178 336.0707,637.18497 336.15009,637.10558 C 336.32433,636.39213 336.69703,637.51024 337.2682,640.45991 C 337.25221,640.42845 337.20454,640.42845 337.12517,640.45991 C 337.06175,640.47589 336.99035,640.49985 336.91098,640.53179 C 336.87951,640.53179 336.80025,640.44854 336.6732,640.28203 C 336.54613,640.11553 336.48261,640.03227 336.48262,640.03227 C 336.213,639.76267 336.03076,639.62787 335.93591,639.62786 C 335.90395,639.62787 335.76116,639.61189 335.50754,639.57994 L 335.10313,639.55598 C 334.86498,639.55599 334.67451,639.62738 334.53173,639.77017 C 334.50026,639.80212 334.36159,639.87751 334.11571,639.99633 C 333.86981,640.11516 333.72303,640.17458 333.67536,640.17457 C 333.62768,640.17458 333.40563,640.23799 333.00921,640.3648 C 332.61279,640.49162 332.39872,640.571 332.36703,640.60294 C 332.33532,640.63489 332.16082,640.69043 331.84355,640.76957 C 331.52626,640.84871 331.32805,640.88828 331.24892,640.88828 C 331.16977,640.88828 330.99141,640.93584 330.71382,641.03095 C 330.43622,641.12606 330.25774,641.17362 330.17836,641.17361 C 330.19433,641.17362 329.86906,641.2847 329.20256,641.50687 C 329.15512,641.52284 328.85381,641.64192 328.29863,641.86408 C 327.55322,642.24453 327.20424,642.43476 327.25167,642.43475 C 327.20424,642.43476 327.99732,641.07875 329.63092,638.36672 L 329.63092,638.36672 z M 343.09762,630.77737 C 342.95531,630.87225 342.7888,630.99108 342.5981,631.13385 C 342.53469,631.19728 342.42385,631.41945 342.26557,631.80036 C 342.18619,631.9906 342.0751,632.45043 341.93232,633.17985 C 341.83696,633.68761 341.76557,634.35388 341.71813,635.17865 L 341.64698,636.53491 C 341.61503,637.18497 341.61503,637.71619 341.64698,638.12858 C 341.63101,638.14456 341.62302,638.55695 341.62302,639.36576 C 341.63899,639.44515 341.66271,639.68305 341.69417,640.07946 C 341.72612,640.4604 341.72612,640.6666 341.69417,640.69805 C 341.74161,641.12642 341.76532,641.59424 341.76533,642.1015 C 341.73386,642.13345 341.71813,642.45073 341.71813,643.05335 C 341.71813,643.41831 341.78953,643.67218 341.93232,643.81497 C 341.94829,643.83046 341.97999,643.95328 342.02743,644.18344 C 342.07486,644.41359 342.11443,644.54452 342.14614,644.57623 C 342.17784,644.60793 342.24137,644.76657 342.33672,645.05215 L 342.74113,645.24237 C 342.93135,645.17897 343.06216,645.09571 343.13356,644.99261 C 343.20495,644.88952 343.28034,644.77456 343.35972,644.64774 C 343.35972,644.26681 343.37956,644.06848 343.41926,644.05275 C 343.45894,644.03702 343.47879,643.95776 343.47879,643.81497 C 343.47879,643.62426 343.46282,643.35466 343.43087,643.00615 L 343.50275,641.9592 C 343.50275,641.87982 343.51848,641.63393 343.54995,641.22153 L 343.57391,640.45991 C 343.5739,639.58769 343.59762,639.10415 343.64506,639.00927 C 343.62908,638.50153 343.6528,637.92239 343.71621,637.27184 C 343.74815,637.20844 343.76413,636.80404 343.76413,636.05862 L 343.90716,634.82144 L 343.97831,633.58426 C 343.97831,633.45745 344.00203,633.29893 344.04947,633.1087 L 344.1925,632.41895 L 344.26365,631.94267 L 344.04947,631.32408 L 343.76413,630.84852 L 343.50275,630.70621 L 343.09762,630.77737 z M 347.28763,645.05215 C 347.28763,645.11556 347.23208,645.07187 347.121,644.9211 C 347.00991,644.77032 346.94639,644.67122 346.93041,644.62378 C 346.88298,644.51246 346.77189,644.21115 346.59716,643.71986 C 346.50229,643.45025 346.45485,642.99817 346.45485,642.3636 C 346.45485,640.30164 346.52625,639.06446 346.66904,638.65206 C 346.71647,638.2871 346.8036,637.73991 346.93041,637.01047 C 347.0732,636.59808 347.1446,636.00321 347.1446,635.22585 C 347.1446,635.09904 347.17231,634.83343 347.22773,634.42901 C 347.28315,634.02462 347.32683,633.80656 347.35878,633.77484 C 347.39073,633.74315 347.44227,633.56079 347.51343,633.22777 C 347.58458,632.89477 347.62016,632.67671 347.62016,632.5736 C 347.62016,632.47052 347.65585,632.30002 347.72725,632.0621 C 347.79864,631.82422 347.83434,631.64972 347.83434,631.53862 C 347.83434,631.42755 347.85818,631.26105 347.90586,631.0391 C 347.95353,630.81719 347.97737,630.65855 347.97737,630.56318 C 347.97737,630.46784 348.08845,630.28536 348.31063,630.01574 C 348.5962,629.87297 348.75472,629.82553 348.78619,629.87344 L 349.1434,630.22993 C 349.19083,630.34127 349.26223,630.47607 349.35758,630.63433 C 349.38904,630.68227 349.40477,630.91218 349.40478,631.32408 C 349.40477,632.10144 349.41276,632.45842 349.42874,632.395 C 349.41276,632.83935 349.36508,633.30716 349.28571,633.79844 C 349.26973,633.81443 349.22617,634.12771 349.15502,634.73831 C 349.08386,635.34892 349.03631,635.6662 349.01235,635.69015 C 348.98839,635.71412 348.9487,636.00757 348.89328,636.57048 C 348.83785,637.13342 348.81014,637.47442 348.81015,637.59348 C 348.81014,637.71256 348.77045,638.006 348.69107,638.47381 C 348.61169,638.94163 348.55216,639.20725 348.51247,639.27065 C 348.47277,639.33406 348.45293,639.85754 348.45293,640.84108 L 348.45293,642.07827 C 348.45293,642.07827 348.51634,642.17338 348.64316,642.3636 L 350.85614,642.3636 C 350.93552,642.36361 351.12986,642.31605 351.43916,642.22093 C 351.74845,642.12583 351.94666,642.07827 352.03379,642.07827 C 352.12091,642.07827 352.28741,642.04644 352.53331,641.98279 C 352.77919,641.91914 352.94981,641.88732 353.04517,641.88732 C 353.07663,641.88732 353.26685,641.82391 353.61584,641.69709 C 353.96482,641.57028 354.15916,641.51873 354.19886,641.54244 C 354.23854,641.56617 354.38919,641.52648 354.65082,641.42337 C 354.91243,641.32028 355.07894,641.26873 355.15034,641.26873 C 355.22173,641.26873 355.35653,641.24501 355.55475,641.19757 C 355.75295,641.15014 355.89973,641.12642 355.99509,641.12642 L 356.47065,641.12642 C 356.50259,641.12642 356.57798,641.19782 356.69682,641.3406 C 356.81564,641.4834 356.87505,641.57052 356.87506,641.60198 L 356.87506,642.22057 C 356.87505,642.23655 356.83149,642.31992 356.74437,642.47069 C 356.65724,642.62147 356.61367,642.72457 356.61369,642.77999 C 356.61367,642.83541 356.45491,642.95025 356.1374,643.1245 C 355.88376,643.14047 355.55873,643.18016 355.16232,643.24357 C 354.97209,643.25954 354.70248,643.30722 354.3535,643.3866 C 353.84575,643.5928 353.06864,643.89411 352.02217,644.29053 C 350.80047,644.70292 349.9994,644.90912 349.61896,644.90912 C 349.49214,644.90912 349.2978,644.92896 349.03595,644.96865 C 348.77408,645.00834 348.57974,645.02819 348.45293,645.02819 C 348.04054,645.02819 347.81062,645.05191 347.76319,645.09934 C 347.73172,645.13129 347.6446,645.13129 347.50181,645.09934 C 347.40646,645.06788 347.33506,645.05215 347.28763,645.05215 L 347.28763,645.05215 z M 358.63935,644.95704 C 358.51205,644.89315 358.43267,644.84547 358.40121,644.81401 C 358.2744,644.52843 358.21099,644.20316 358.21099,643.8382 C 358.21099,643.50519 358.2744,643.12474 358.40121,642.69686 C 358.73422,642.03035 358.97212,641.4909 359.11491,641.0785 C 359.33708,640.69806 359.61467,640.11916 359.94769,639.3418 C 359.97915,639.21499 360.14166,638.90182 360.43523,638.4023 C 360.72879,637.90278 360.87557,637.60535 360.87558,637.50999 C 360.87557,637.28782 361.10549,636.73264 361.56532,635.84444 C 361.59726,635.78104 361.87485,635.28951 362.39809,634.36984 C 362.55685,634.13171 362.74707,633.78272 362.96877,633.32288 C 363.17496,632.94245 363.48425,632.35568 363.89665,631.56258 C 364.30904,630.76951 364.51524,630.36099 364.51524,630.33702 C 364.51524,630.31307 364.5392,630.03948 364.58712,629.51622 C 364.87221,629.34199 365.03073,629.25486 365.06268,629.25485 L 365.70523,629.25485 C 365.97483,629.25486 366.1849,629.17548 366.33544,629.0167 C 366.48596,628.85796 366.67232,628.72316 366.89449,628.6123 C 366.98984,628.56488 367.1803,628.54116 367.46589,628.54114 L 367.72727,628.89763 L 368.44097,630.37296 L 369.05956,632.10966 L 369.55908,634.22681 C 369.55907,634.27425 369.70186,634.94827 369.98745,636.24885 C 370.11425,636.80404 370.27277,637.39092 370.46301,638.00951 C 370.5264,638.04146 370.61365,638.36673 370.72475,638.98531 C 370.83582,639.60391 370.9152,639.9132 370.96289,639.9132 C 371.01055,639.9132 371.05811,640.15909 371.10556,640.65086 C 371.15298,641.04729 371.1767,641.29704 371.17671,641.40014 C 371.1767,641.50324 371.21639,641.77285 371.29578,642.20895 C 371.37515,642.64507 371.43081,642.87885 371.46277,642.91031 C 371.49422,642.94226 371.49422,643.11676 371.46277,643.43379 C 371.41484,643.63999 371.36716,643.95727 371.31974,644.38564 C 371.28778,644.63927 371.26407,644.78206 371.24859,644.81401 C 371.05787,645.00423 370.89136,645.09934 370.74907,645.09934 C 370.3841,645.09934 370.20961,645.09934 370.22559,645.09934 C 370.11425,645.08337 370.0189,644.97228 369.93953,644.76609 C 369.89208,644.65524 369.86038,644.57611 369.84442,644.52867 L 369.84442,643.91008 C 369.84441,643.54512 369.76527,642.98195 369.607,642.22057 C 369.51164,641.68136 369.38458,641.09448 369.22583,640.45991 C 369.17838,640.42845 369.12296,640.26993 369.05956,639.98435 C 368.99614,639.69878 368.95258,639.55599 368.92887,639.55598 C 368.90515,639.55599 368.84561,639.33394 368.75027,638.88984 C 368.6549,638.44575 368.59137,638.2237 368.55968,638.22369 C 368.52797,638.2237 368.4884,638.03735 368.44097,637.66463 C 368.39353,637.29194 368.34585,637.07388 368.29794,637.01047 C 368.26647,636.9945 368.19919,636.80815 368.0961,636.45141 C 367.99299,636.09469 367.94144,635.88849 367.94145,635.83282 C 367.94144,635.77717 367.88191,635.59082 367.76284,635.27377 C 367.64376,634.95674 367.58423,634.77438 367.58424,634.72669 C 367.58423,634.67902 367.52881,634.52038 367.41797,634.25077 C 367.30712,633.98117 367.2517,633.80668 367.25171,633.72729 C 367.2517,633.64792 367.20015,633.47742 367.09706,633.21579 C 366.99395,632.95418 366.93042,632.82337 366.90647,632.82336 C 366.88251,632.82337 366.83483,632.69644 366.76344,632.44255 C 366.69204,632.18869 366.64061,632.06175 366.60916,632.06174 C 366.33954,632.06175 366.15707,632.01432 366.06172,631.91944 C 366.01428,631.87153 365.82405,631.91896 365.49105,632.06174 C 365.42763,632.12516 365.33252,632.23625 365.20571,632.395 C 364.9361,632.96616 364.8013,633.33887 364.8013,633.51311 C 364.8013,633.56055 364.69021,633.81031 364.46805,634.26238 C 364.24587,634.71448 364.11494,634.96037 364.07526,635.00005 C 364.03556,635.03975 363.80952,635.47997 363.39713,636.32072 C 363.28628,636.60631 363.09606,637.00273 362.82646,637.50999 C 362.77854,637.79557 362.68342,638.10487 362.54112,638.43787 C 362.42979,638.48531 362.10452,639.06421 361.56532,640.17457 C 361.51788,640.28591 361.29196,640.59532 360.88756,641.10282 C 360.48314,641.61033 360.26509,641.86409 360.23339,641.86408 C 360.20168,641.86409 360.13428,641.97505 360.03118,642.19697 C 359.92808,642.41891 359.87653,642.56157 359.87654,642.62498 C 359.87653,643.05335 359.82886,643.36264 359.73351,643.55287 C 359.51133,644.0127 359.40025,644.36168 359.40025,644.59982 C 359.40025,644.77407 359.32885,644.94857 359.18607,645.1233 C 359.0912,645.15476 358.9881,645.18647 358.87677,645.21841 C 358.84531,645.15501 358.76617,645.06788 358.63935,644.95704 L 358.63935,644.95704 z M 362.06484,638.36672 C 362.57258,638.5889 362.85017,638.70385 362.89761,638.71159 C 362.94504,638.71934 363.08783,638.73919 363.32598,638.77113 C 363.57961,638.8026 363.71441,638.8026 363.73039,638.77113 C 364.01596,638.7237 364.34897,638.66029 364.72943,638.5809 C 364.77734,638.54896 364.92013,638.4933 365.15779,638.41391 L 365.5622,638.29484 C 365.75242,638.19998 365.98233,638.15254 366.25194,638.15254 C 366.31534,638.15254 366.48197,638.1684 366.75183,638.20009 C 367.02166,638.2318 367.16433,638.23967 367.17983,638.22369 C 367.19579,638.20772 367.29103,638.18001 367.46553,638.14056 C 367.64001,638.10112 367.75098,638.05743 367.79842,638.00951 C 368.11593,637.69247 368.28244,637.51798 368.29794,637.48603 C 368.40926,637.31178 368.50461,637.18497 368.584,637.10558 C 368.75824,636.39213 369.13095,637.51024 369.70211,640.45991 C 369.68613,640.42845 369.63845,640.42845 369.55908,640.45991 C 369.49566,640.47589 369.42427,640.49985 369.3449,640.53179 C 369.31342,640.53179 369.23416,640.44854 369.10712,640.28203 C 368.98005,640.11553 368.91652,640.03227 368.91653,640.03227 C 368.64692,639.76267 368.46468,639.62787 368.36982,639.62786 C 368.33786,639.62787 368.19507,639.61189 367.94145,639.57994 L 367.53704,639.55598 C 367.29889,639.55599 367.10843,639.62738 366.96565,639.77017 C 366.93418,639.80212 366.7955,639.87751 366.54962,639.99633 C 366.30373,640.11516 366.15694,640.17458 366.10928,640.17457 C 366.06159,640.17458 365.83954,640.23799 365.44313,640.3648 C 365.0467,640.49162 364.83264,640.571 364.80094,640.60294 C 364.76923,640.63489 364.59474,640.69043 364.27746,640.76957 C 363.96017,640.84871 363.76196,640.88828 363.68283,640.88828 C 363.60369,640.88828 363.42532,640.93584 363.14774,641.03095 C 362.87014,641.12606 362.69165,641.17362 362.61228,641.17361 C 362.62824,641.17362 362.30298,641.2847 361.63647,641.50687 C 361.58903,641.52284 361.28772,641.64192 360.73254,641.86408 C 359.98714,642.24453 359.63815,642.43476 359.68559,642.43475 C 359.63815,642.43476 360.43123,641.07875 362.06484,638.36672 L 362.06484,638.36672 z M 374.08089,645.31353 C 373.89018,645.18671 373.66002,645.0202 373.39042,644.81401 C 373.31104,644.44905 373.23964,644.13177 373.17624,643.86216 C 373.04942,643.37039 372.98601,642.25228 372.98601,640.50783 L 372.98601,637.62906 C 372.98601,637.58163 372.994,637.28831 373.00997,636.74909 L 373.03393,635.91632 C 373.03393,635.58331 373.08149,635.11937 373.1766,634.52449 C 373.27171,633.92962 373.31927,633.47367 373.31927,633.15662 C 373.31927,633.02933 373.39066,632.64065 373.53345,631.99059 C 373.85049,631.65759 374.04071,631.45938 374.10412,631.39596 C 374.16753,631.33256 374.358,631.2055 374.67552,631.01478 C 374.86574,630.91993 375.05597,630.81707 375.24619,630.70621 L 375.6506,630.42015 L 374.88971,636.17769 C 374.8897,636.05089 374.86586,636.25309 374.81819,636.7843 C 374.77051,637.31554 374.75466,637.89044 374.77063,638.50903 L 374.81783,640.98339 C 374.81782,641.07875 374.87337,641.40002 374.98445,641.94722 C 375.09554,642.49441 375.15907,642.76801 375.17504,642.76801 C 375.39721,643.24381 375.50829,643.60853 375.5083,643.86216 C 375.50829,643.91008 375.39721,644.16395 375.17504,644.62378 C 374.88946,644.90936 374.72683,645.06401 374.68714,645.08773 C 374.64745,645.11144 374.44536,645.18671 374.08089,645.31353 L 374.08089,645.31353 z M 375.79363,630.08762 C 375.79363,630.13507 376.1823,629.96832 376.95966,629.58738 C 378.03808,629.04818 378.53759,628.77858 378.45822,628.77856 C 378.18861,628.77858 378.40267,628.73901 379.10041,628.65985 C 379.79813,628.58073 380.15498,628.54891 380.17096,628.56438 C 380.2029,628.59634 380.41309,628.64002 380.80153,628.69543 C 381.18996,628.75087 381.43984,628.77858 381.55117,628.77856 C 381.5986,628.77858 381.87619,628.96106 382.38395,629.326 L 382.85951,630.42015 L 382.85951,631.80036 C 382.8595,631.84781 382.76439,632.11342 382.57417,632.5972 C 382.38394,633.081 382.27285,633.33088 382.24092,633.34684 C 381.9713,633.80668 381.62232,634.34589 381.19396,634.96447 C 381.06714,635.13873 380.66273,635.56686 379.98074,636.24885 L 379.124,637.03443 C 379.01315,637.17722 378.8308,637.39927 378.57693,637.70057 C 378.32305,638.00189 378.12496,638.19223 377.98266,638.27161 C 377.71257,638.36649 377.44272,638.46958 377.17312,638.5809 L 375.36527,638.3188 L 374.34227,638.3188 C 374.3108,638.31881 374.22368,637.94611 374.08089,637.20069 C 374.04894,637.15326 374.04096,636.99474 374.05693,636.72513 C 374.05693,636.59832 374.06479,636.45953 374.08053,636.30874 C 374.09626,636.15798 374.15979,636.06686 374.27111,636.03539 C 374.31855,636.01942 374.38994,636.01144 374.4853,636.01143 C 374.5487,636.01144 374.7866,636.09058 375.199,636.24885 C 375.4686,636.37615 375.61914,636.44755 375.6506,636.46303 C 375.68254,636.49498 375.8096,636.49498 376.03178,636.46303 C 376.23797,636.43158 376.38052,636.41584 376.45942,636.41584 C 377.15738,636.06686 377.56203,635.85268 377.67336,635.77329 C 377.70482,635.74183 378.16465,635.34541 379.05285,634.58402 C 379.08479,634.52063 379.47347,634.01312 380.21888,633.06151 C 380.36166,632.90276 380.5439,632.68857 380.76559,632.41895 C 380.82899,632.30764 380.8607,632.23625 380.86071,632.20477 C 380.8607,631.6496 380.81326,631.33232 380.7184,631.25293 C 380.40135,630.91993 380.17918,630.75342 380.05189,630.75341 C 379.97299,630.75342 379.84629,630.76528 379.67181,630.78898 C 379.49731,630.81271 379.37037,630.82457 379.29099,630.82456 C 378.65642,630.82457 378.29147,630.84853 378.19612,630.89644 C 378.03783,630.97535 377.67312,631.11789 377.10197,631.32408 C 376.8643,631.48285 376.58671,631.66533 376.26919,631.87152 C 375.99958,632.01432 375.60316,632.2285 375.07993,632.51407 C 374.90519,632.60895 374.80209,632.66437 374.77063,632.68033 C 374.81807,632.5695 374.89745,632.39501 375.00878,632.15685 C 375.16705,631.83983 375.34929,631.36402 375.55549,630.72945 C 375.71425,630.25366 375.79363,630.03972 375.79363,630.08762 L 375.79363,630.08762 z M 374.27111,643.05335 L 374.69948,642.43475 L 375.36527,642.48267 C 376.03129,642.53011 376.28516,642.55383 376.12689,642.55383 C 376.17432,642.55383 376.42795,642.52212 376.88778,642.45871 L 377.57753,642.3636 C 377.70482,642.36361 377.96668,642.29221 378.36311,642.14942 C 378.75952,642.00663 379.02114,641.93524 379.14796,641.93524 C 379.1799,641.93524 379.35052,641.86784 379.65983,641.73303 C 379.96911,641.59823 380.13961,641.53083 380.17132,641.53083 C 380.20302,641.53083 380.3377,641.45944 380.57537,641.31664 C 380.73412,641.23727 380.85319,641.17386 380.93258,641.12642 C 381.10683,640.76147 381.17822,640.55527 381.14677,640.50783 C 381.09884,640.4604 380.93233,640.3256 380.64725,640.10342 C 379.80648,639.86528 378.8389,639.45289 377.74452,638.86624 C 377.37955,638.77089 376.97515,638.65182 376.53129,638.50903 C 376.46788,638.47757 376.31323,638.438 376.06735,638.39032 C 375.82146,638.34265 375.68254,638.33478 375.6506,638.36672 C 375.74595,638.1765 375.84131,637.97829 375.93666,637.77209 C 376.41246,637.40714 377.13391,636.91536 378.10101,636.29676 C 378.46596,636.10655 378.65642,636.01942 378.6724,636.03539 C 378.6724,636.06686 378.7398,636.17383 378.87461,636.3563 C 379.0094,636.53879 379.0768,636.64189 379.07681,636.6656 C 379.0768,636.68932 379.15606,636.81614 379.31459,637.04604 C 379.4731,637.27597 379.55236,637.39092 379.55237,637.39092 C 379.50493,637.39092 379.91732,637.44659 380.78955,637.55791 L 382.02673,637.89043 L 382.97858,638.5809 L 383.54925,639.3418 L 383.73948,640.29365 L 383.54925,641.26873 L 383.19276,641.74501 C 382.87523,642.15741 382.69275,642.38732 382.64533,642.43475 C 382.40766,642.56157 382.16189,642.69638 381.90803,642.83916 C 381.65414,642.98195 381.14652,643.19614 380.38515,643.48171 C 380.00469,643.64048 379.36238,643.8624 378.45822,644.1475 C 377.77622,644.32223 377.4115,644.4096 377.36407,644.4096 C 376.77694,644.4096 376.43594,644.45703 376.34107,644.5519 C 376.13487,644.59982 375.881,644.67122 375.57945,644.76609 C 375.50006,644.81401 375.27402,644.88552 374.90132,644.98063 C 374.52862,645.07575 374.34226,645.13903 374.34227,645.1705 L 374.55645,644.00519 L 374.27111,643.05335 z M 386.69158,645.05215 C 386.69158,645.11556 386.63604,645.07187 386.52495,644.9211 C 386.41387,644.77032 386.35034,644.67122 386.33437,644.62378 C 386.28693,644.51246 386.17585,644.21115 386.00111,643.71986 C 385.90624,643.45025 385.85881,642.99817 385.85881,642.3636 C 385.85881,640.30164 385.9302,639.06446 386.07299,638.65206 C 386.12042,638.2871 386.20755,637.73991 386.33437,637.01047 C 386.47715,636.59808 386.54855,636.00321 386.54855,635.22585 C 386.54855,635.09904 386.57626,634.83343 386.63168,634.42901 C 386.6871,634.02462 386.73079,633.80656 386.76273,633.77484 C 386.79468,633.74315 386.84623,633.56079 386.91738,633.22777 C 386.98853,632.89477 387.02411,632.67671 387.02411,632.5736 C 387.02411,632.47052 387.05981,632.30002 387.1312,632.0621 C 387.20259,631.82422 387.23829,631.64972 387.23829,631.53862 C 387.23829,631.42755 387.26213,631.26105 387.30981,631.0391 C 387.35748,630.81719 387.38132,630.65855 387.38133,630.56318 C 387.38132,630.46784 387.49241,630.28536 387.71458,630.01574 C 388.00016,629.87297 388.15868,629.82553 388.19014,629.87344 L 388.54735,630.22993 C 388.59479,630.34127 388.66618,630.47607 388.76154,630.63433 C 388.793,630.68227 388.80873,630.91218 388.80873,631.32408 C 388.80873,632.10144 388.81671,632.45842 388.83269,632.395 C 388.81671,632.83935 388.76904,633.30716 388.68966,633.79844 C 388.67368,633.81443 388.63012,634.12771 388.55897,634.73831 C 388.48782,635.34892 388.44026,635.6662 388.4163,635.69015 C 388.39234,635.71412 388.35265,636.00757 388.29723,636.57048 C 388.24181,637.13342 388.2141,637.47442 388.2141,637.59348 C 388.2141,637.71256 388.17441,638.006 388.09503,638.47381 C 388.01564,638.94163 387.95611,639.20725 387.91642,639.27065 C 387.87673,639.33406 387.85688,639.85754 387.85689,640.84108 L 387.85689,642.07827 C 387.85688,642.07827 387.92029,642.17338 388.04711,642.3636 L 390.2601,642.3636 C 390.33947,642.36361 390.53381,642.31605 390.84311,642.22093 C 391.1524,642.12583 391.35061,642.07827 391.43774,642.07827 C 391.52486,642.07827 391.69137,642.04644 391.93726,641.98279 C 392.18314,641.91914 392.35376,641.88732 392.44912,641.88732 C 392.48058,641.88732 392.6708,641.82391 393.0198,641.69709 C 393.36877,641.57028 393.56311,641.51873 393.60281,641.54244 C 393.64249,641.56617 393.79315,641.52648 394.05477,641.42337 C 394.31638,641.32028 394.48289,641.26873 394.55429,641.26873 C 394.62568,641.26873 394.76048,641.24501 394.9587,641.19757 C 395.1569,641.15014 395.30368,641.12642 395.39905,641.12642 L 395.87461,641.12642 C 395.90654,641.12642 395.98193,641.19782 396.10077,641.3406 C 396.21959,641.4834 396.279,641.57052 396.27902,641.60198 L 396.27902,642.22057 C 396.279,642.23655 396.23544,642.31992 396.14833,642.47069 C 396.06119,642.62147 396.01763,642.72457 396.01764,642.77999 C 396.01763,642.83541 395.85887,642.95025 395.54135,643.1245 C 395.28771,643.14047 394.96268,643.18016 394.56627,643.24357 C 394.37604,643.25954 394.10644,643.30722 393.75746,643.3866 C 393.2497,643.5928 392.47259,643.89411 391.42613,644.29053 C 390.20443,644.70292 389.40336,644.90912 389.02291,644.90912 C 388.89609,644.90912 388.70176,644.92896 388.4399,644.96865 C 388.17804,645.00834 387.9837,645.02819 387.85689,645.02819 C 387.44449,645.02819 387.21457,645.05191 387.16714,645.09934 C 387.13568,645.13129 387.04855,645.13129 386.90577,645.09934 C 386.81041,645.06788 386.73902,645.05215 386.69158,645.05215 L 386.69158,645.05215 z M 399.04235,645.1233 C 398.99491,645.15476 398.87596,645.07139 398.6855,644.87318 C 398.49503,644.67497 398.38406,644.53617 398.3526,644.45679 C 398.2253,643.80674 398.08251,643.10901 397.92424,642.3636 L 397.92424,640.38876 C 397.92424,640.40474 397.95594,640.10343 398.01935,639.48483 C 398.08276,638.86625 398.09849,638.52525 398.06654,638.46183 C 398.05105,638.42989 398.05105,638.17602 398.06654,637.70021 C 398.08251,637.22442 398.07477,636.9628 398.04331,636.91536 C 398.01136,636.86793 398.01136,636.61405 398.04331,636.15373 L 398.0905,635.34492 C 398.0905,635.26555 398.08251,634.98796 398.06654,634.51214 L 398.01935,633.75125 C 398.01935,633.60847 398.05904,633.39429 398.13842,633.1087 C 398.2178,632.82313 398.25749,632.60895 398.25749,632.46615 C 398.25749,632.37129 398.29307,632.1375 398.36422,631.76479 C 398.43537,631.3921 398.48692,631.18977 398.51887,631.15781 C 398.70909,630.99907 398.89931,630.83256 399.08954,630.65829 C 399.12148,630.62636 399.2921,630.56683 399.6014,630.47969 C 399.91069,630.39258 400.07321,630.33316 400.08894,630.30144 C 400.10467,630.26975 400.20789,630.2539 400.3986,630.25389 L 400.27953,632.01455 L 400.08931,633.34684 C 400.04138,633.88606 399.96999,634.70286 399.87512,635.79725 C 399.79574,636.49523 399.76403,636.85994 399.78001,636.8914 C 399.81147,636.8914 399.81147,637.13729 399.78001,637.62906 C 399.73209,638.27912 399.70813,638.55671 399.70813,638.46183 C 399.70813,638.55671 399.70026,638.70724 399.68453,638.91343 C 399.6688,639.11964 399.66094,639.27041 399.66094,639.36576 C 399.66094,639.47661 399.69264,639.67083 399.75605,639.94841 C 399.81946,640.22601 399.85116,640.41635 399.85116,640.51945 C 399.85116,640.62255 399.87488,640.85658 399.92231,641.22153 C 399.95426,641.49114 399.95426,641.67362 399.92231,641.76897 C 399.89085,641.86384 399.87512,642.01438 399.87512,642.22057 C 399.87512,642.3319 399.89097,642.49853 399.92268,642.72045 C 399.95438,642.94238 399.97023,643.11676 399.97023,643.24357 C 399.97023,643.65597 399.95426,643.89387 399.92231,643.95727 C 399.74806,644.32223 399.45474,644.71091 399.04235,645.1233 L 399.04235,645.1233 z M 400.1365,630.37296 C 400.26331,630.37297 400.46951,630.33328 400.75509,630.25389 C 401.34221,630.22196 401.9608,630.17428 402.61086,630.11086 C 402.9279,630.07941 403.29261,630.03197 403.70501,629.96855 C 404.0385,629.95259 404.4509,629.90492 404.94219,629.82552 L 406.10822,629.82552 C 406.1876,629.82553 406.31054,629.84937 406.47706,629.89703 C 406.64355,629.94473 406.7665,629.96857 406.84589,629.96855 C 407.44849,629.96857 407.79748,630.016 407.89284,630.11086 C 407.90832,630.12684 408.00331,630.15068 408.17782,630.18237 C 408.3523,630.21409 408.43955,630.23793 408.43956,630.25389 C 408.50295,630.33328 408.54264,630.4918 408.55863,630.72945 C 408.51118,630.88822 408.44777,631.0707 408.3684,631.27688 C 408.13025,631.51456 407.96374,631.65735 407.86888,631.70525 C 407.69414,631.7527 407.51166,631.79227 407.32145,631.82396 C 407.13121,631.85568 406.81393,631.89525 406.3696,631.94267 C 406.0845,631.97463 405.90226,631.9906 405.82289,631.99059 C 405.66412,631.9906 405.42222,632.01444 405.09721,632.0621 C 404.77217,632.10979 404.53028,632.13363 404.37152,632.13362 L 402.82505,632.13362 C 402.00025,632.13363 401.58786,632.13363 401.58786,632.13362 C 401.4291,632.14912 401.10407,632.19656 400.61278,632.27592 C 400.54937,632.27594 400.39061,632.37903 400.1365,632.58522 C 400.05711,632.64864 400.00169,632.68034 399.97023,632.68033 C 399.89085,632.68034 399.85116,632.6012 399.85116,632.44291 C 399.85116,632.3316 399.89472,631.95878 399.98185,631.32444 C 400.06897,630.69013 400.12052,630.37297 400.1365,630.37296 L 400.1365,630.37296 z M 399.51791,636.63002 C 399.97822,636.74087 400.24782,636.79629 400.32672,636.79628 C 400.6123,636.79629 400.87416,636.77257 401.1123,636.72513 C 401.49275,636.64576 401.79406,636.57436 402.01623,636.51095 C 402.07963,636.47901 402.24614,636.41548 402.51575,636.32036 C 402.78535,636.22526 402.95186,636.1777 403.01527,636.17769 C 403.07867,636.1777 403.26914,636.16197 403.58667,636.1305 L 404.08619,636.08258 L 404.84708,636.08258 C 404.94243,636.08259 405.08135,636.07073 405.26383,636.047 C 405.4463,636.0233 405.58498,636.01144 405.67986,636.01143 C 405.79118,636.01144 405.96579,636.0233 406.2037,636.047 C 406.44159,636.07073 406.61596,636.08259 406.72681,636.08258 C 406.79021,636.08259 406.90916,636.11429 407.08367,636.17769 C 407.25815,636.24111 407.36911,636.27281 407.41656,636.27281 C 407.59128,636.27281 407.70237,636.4156 407.74981,636.70117 C 407.70237,636.70118 407.59128,636.84397 407.41656,637.12954 C 406.90928,637.46256 406.4255,637.62907 405.96519,637.62906 C 405.42597,637.62907 404.9106,637.69247 404.41908,637.81928 C 403.92754,637.94611 403.43589,638.07292 402.94412,638.19973 L 401.63578,638.46183 C 401.38166,638.50927 400.99299,638.60439 400.46975,638.74717 C 399.67691,639.06421 399.31219,639.22273 399.3756,639.22273 C 399.32768,639.22273 399.37512,638.3585 399.51791,636.63002 L 399.51791,636.63002 z M 399.51791,642.52987 C 400.08906,642.6412 400.39836,642.69686 400.44579,642.69686 C 400.25557,642.69686 400.39049,642.71658 400.85056,642.75603 C 401.31063,642.79548 401.56438,642.80746 401.61182,642.79197 C 401.67523,642.76003 402.01623,642.74405 402.63482,642.74405 C 402.85699,642.74405 403.13458,642.70436 403.4676,642.62498 C 404.07021,642.48219 404.39523,642.4108 404.44268,642.4108 C 404.36329,642.4108 404.68057,642.29197 405.39452,642.05431 C 405.91775,641.87958 406.29045,641.79221 406.51263,641.7922 L 407.48844,641.7922 C 407.67865,641.79221 407.8529,641.87159 408.01119,642.03035 C 408.29676,642.31593 408.41583,642.48243 408.3684,642.52987 C 408.32096,642.59328 408.22585,642.68064 408.08307,642.79197 C 407.7181,642.9822 407.35314,643.07731 406.98819,643.07731 C 406.92477,643.07731 406.73455,643.1487 406.41752,643.29149 C 406.05255,643.44977 405.84635,643.53689 405.79893,643.55287 C 405.75148,643.56884 405.55327,643.60853 405.2043,643.67194 L 404.72801,643.79101 C 404.64911,643.80698 404.60167,643.81497 404.58571,643.81497 C 404.03052,643.98922 403.56657,644.14774 403.19388,644.29053 C 402.82117,644.43332 402.03196,644.66323 400.82624,644.98027 C 400.28703,645.12306 399.962,645.17074 399.85116,645.1233 C 399.56558,645.1233 399.27226,645.1233 398.97119,645.1233 C 398.97119,645.07587 399.15343,644.21139 399.51791,642.52987 L 399.51791,642.52987 z"
         id="text2395"
         style="font-size:23.79106522px;font-style:normal;font-variant:normal;font-weight:normal;font-stretch:normal;text-align:center;text-anchor:middle;fill:#404040;fill-opacity:1;stroke:none;stroke-width:1px;stroke-linecap:butt;stroke-linejoin:miter;stroke-opacity:1;font-family:Comic Strip;-inkscape-font-specification:Comic Strip" />
    </g>
  </g>
</svg>
